<?xml version="1.0" encoding="UTF-8"?><svg id="Layer_2" xmlns="http://www.w3.org/2000/svg" viewBox="0 0 125.64 117.13"><defs><style>.cls-1{fill:#2c3e4f;}</style></defs><g id="Layer_1-2"><path class="cls-1" d="M125.61,71.05l-1.02-5.85c-.1-.6-.48-1.11-1.03-1.38l-12.97-6.95-.02-9.58c0-1.07-.87-1.93-1.94-1.93h-5.48c-1.07.01-1.93.88-1.93,1.95v4.55s-5.82-3.12-5.82-3.12l-.02-9.98c0-1.07-.87-1.93-1.94-1.93h-5.48c-1.07.01-1.93.88-1.93,1.95v4.95s-13.05-7-13.05-7c.43-7.17.74-12.83.77-15C73.9,11.04,66.1-.48,62.67.02c-3.43-.48-11.18,11.07-11,21.77.04,2.16.36,7.83.83,14.99l-13.03,7.05v-4.95c-.01-1.07-.88-1.93-1.95-1.93h-5.48c-1.07.01-1.93.88-1.93,1.95l.02,9.98-5.81,3.14v-4.55c-.01-1.07-.88-1.93-1.95-1.93h-5.48c-1.07.01-1.93.88-1.93,1.95l.02,9.58-12.94,7c-.54.27-.92.79-1.02,1.38L.03,71.31c-.23,1.34.98,2.48,2.3,2.18l51.82-12.54c.87,12.31,1.69,23.47,1.91,26.63.26,3.65.6,6.91.99,9.82l-14.97,10.57c-.39.22-.66.61-.74,1.05l-.5,2.86c-.18,1.06.77,1.96,1.82,1.71l16.44-4.65c.93,3.94,1.73,6.07,1.92,6.45.41.82,1.09,1.75,1.89,1.75s1.47-.93,1.88-1.75c.19-.38.98-2.51,1.89-6.45l16.46,4.59c1.05.24,2-.67,1.81-1.72l-.51-2.86c-.08-.44-.35-.82-.74-1.04l-15.01-10.51c.37-2.91.7-6.17.95-9.82.21-3.16.99-14.32,1.81-26.64l51.87,12.33c1.33.29,2.53-.85,2.29-2.19Z"/></g></svg>