<?xml version="1.0" encoding="UTF-8"?><svg id="Layer_2" xmlns="http://www.w3.org/2000/svg" viewBox="0 0 1300.02 693.85"><defs><style>.cls-1,.cls-2,.cls-3{fill:none;stroke:#2c3e4f;stroke-miterlimit:10;stroke-width:4px;}.cls-2{stroke-dasharray:11.93 11.93;}.cls-3{stroke-dasharray:12.05 12.05;}</style></defs><g id="Layer_1-2"><path class="cls-1" d="M.42,681.48c1.94.41,3.9.81,5.88,1.2"/><path class="cls-3" d="M18.14,684.83c172.78,28.81,482.74-25.55,683.4-267.1,197.59-237.87,55.83-395.96-38.97-389.56-78.59,5.31-130.52,103.43-145.98,136.82"/><path class="cls-1" d="M514.11,170.48c-1.55,3.53-2.34,5.52-2.34,5.52,0,0-1.42-1.6-4.09-4.39"/><path class="cls-2" d="M499.28,163.14c-34.85-33.99-135.72-119.48-214.2-57.17-49.12,39-96.21,207.5,35.56,316.61,115.72,95.82,295.62,159.96,388.36,146.02,196.9-29.6,293.18-147.03,374.1-286.98,73.07-126.38,170.51-240.36,206.49-272.49"/><path class="cls-1" d="M1294.13,5.25c1.86-1.51,3.48-2.71,4.83-3.55"/></g></svg>