<?xml version="1.0" encoding="UTF-8"?><svg id="Layer_2" xmlns="http://www.w3.org/2000/svg" viewBox="0 0 1290.66 691.28"><defs><style>.cls-1{fill:#2c3e4f;}</style></defs><g id="Layer_1-2"><path class="cls-1" d="M107.66,688.45c-.05,1.19-1.03,2.13-2.21,2.13-.03,0-.06,0-.08,0-4.82-.18-9.8-.4-14.8-.65-1.22-.06-2.16-1.1-2.1-2.33.06-1.22,1.11-2.17,2.33-2.1,4.98.25,9.94.47,14.75.65,1.22.05,2.18,1.08,2.13,2.3ZM164.49,686.53c-4.75.15-9.7.25-14.73.3-1.22.01-2.21,1.02-2.19,2.24.01,1.22,1,2.19,2.22,2.19h.02c5.06-.05,10.05-.15,14.82-.3,1.22-.04,2.18-1.06,2.15-2.29-.04-1.22-1.07-2.17-2.29-2.15ZM135.02,686.85c-4.77-.04-9.73-.12-14.75-.24-.02,0-.04,0-.05,0-1.2,0-2.19.96-2.22,2.16-.03,1.22.94,2.24,2.16,2.27,5.04.12,10.03.2,14.82.24h.02c1.22,0,2.21-.98,2.22-2.2.01-1.22-.97-2.22-2.2-2.23ZM227.35,264.39c-1.07-4.81-1.99-9.65-2.74-14.38-.19-1.21-1.33-2.03-2.54-1.84-1.21.19-2.03,1.33-1.84,2.54.77,4.82,1.7,9.75,2.79,14.65.23,1.03,1.15,1.74,2.16,1.74.16,0,.32-.02.48-.05,1.2-.26,1.95-1.45,1.68-2.64ZM418.64,615.78c-4.44,2.03-8.97,4.05-13.47,6.02-1.12.49-1.63,1.8-1.14,2.92.36.83,1.18,1.33,2.03,1.33.3,0,.6-.06.89-.19,4.51-1.98,9.07-4.01,13.53-6.05,1.11-.51,1.6-1.82,1.1-2.94-.51-1.11-1.82-1.6-2.94-1.1ZM193.82,684.72c-2.9.32-5.68.57-8.24.76-2.09.15-4.24.29-6.39.41-1.22.07-2.16,1.12-2.08,2.34.07,1.18,1.05,2.09,2.21,2.09.04,0,.09,0,.13,0,2.17-.13,4.34-.27,6.45-.41,2.62-.19,5.45-.45,8.41-.77,1.22-.13,2.1-1.23,1.96-2.45-.13-1.22-1.23-2.1-2.45-1.96ZM76.04,684.67c-4.87-.3-9.82-.63-14.73-.99-1.22-.09-2.28.83-2.37,2.05s.83,2.28,2.05,2.37c4.93.36,9.9.69,14.78.99.05,0,.09,0,.14,0,1.16,0,2.14-.9,2.21-2.08.08-1.22-.85-2.27-2.08-2.35ZM219.92,208.39s.09,0,.14,0c1.16,0,2.14-.91,2.21-2.08.3-4.92.81-9.79,1.52-14.5.18-1.21-.65-2.34-1.86-2.52-1.21-.18-2.34.65-2.52,1.86-.73,4.83-1.25,9.84-1.56,14.89-.07,1.22.86,2.27,2.08,2.35ZM223.95,179.16c.18.05.37.07.54.07.99,0,1.89-.67,2.15-1.67,1.2-4.76,2.65-9.43,4.31-13.87.43-1.15-.16-2.42-1.3-2.85-1.15-.43-2.42.16-2.85,1.3-1.71,4.59-3.21,9.42-4.45,14.33-.3,1.19.42,2.39,1.61,2.69ZM233.82,151.37c.33.17.67.25,1.01.25.8,0,1.58-.44,1.97-1.2,2.23-4.33,4.74-8.5,7.45-12.41.7-1.01.45-2.39-.56-3.08-1.01-.7-2.39-.45-3.08.56-2.82,4.06-5.43,8.4-7.75,12.9-.56,1.09-.13,2.42.95,2.99ZM230.92,278.6c-.33-1.18-1.56-1.86-2.73-1.53-1.18.33-1.86,1.56-1.53,2.73,1.32,4.7,2.81,9.49,4.42,14.22.31.92,1.18,1.51,2.1,1.51.24,0,.48-.04.71-.12,1.16-.39,1.78-1.65,1.39-2.81-1.58-4.66-3.04-9.37-4.35-14ZM46.59,682.54c-4.91-.41-9.86-.84-14.71-1.29-1.22-.11-2.3.78-2.41,2-.11,1.22.78,2.3,2,2.41,4.87.45,9.84.89,14.76,1.3.06,0,.12,0,.19,0,1.14,0,2.11-.88,2.21-2.03.1-1.22-.81-2.29-2.03-2.39ZM220.57,237.92c.07,0,.14,0,.2,0,1.22-.11,2.12-1.19,2.01-2.41-.45-4.91-.72-9.82-.81-14.59-.02-1.22-1.03-2.19-2.26-2.17-1.22.02-2.2,1.03-2.17,2.26.09,4.88.37,9.89.83,14.91.11,1.15,1.07,2.01,2.2,2.01ZM17.17,679.8c-9.17-.95-14.63-1.62-14.68-1.63-1.22-.15-2.32.71-2.47,1.93-.15,1.22.71,2.32,1.93,2.47.05,0,5.55.68,14.77,1.64.08,0,.16.01.23.01,1.12,0,2.08-.85,2.2-1.99.13-1.22-.76-2.31-1.98-2.43ZM308.55,658.15c-4.7,1.49-9.45,2.94-14.1,4.33-1.17.35-1.84,1.58-1.49,2.76.29.96,1.17,1.58,2.12,1.58.21,0,.42-.03.63-.09,4.68-1.4,9.45-2.86,14.17-4.35,1.17-.37,1.81-1.61,1.45-2.78-.37-1.17-1.61-1.81-2.78-1.45ZM364.24,638.63c-4.58,1.76-9.23,3.51-13.81,5.2-1.15.42-1.74,1.7-1.32,2.85.33.9,1.18,1.45,2.08,1.45.25,0,.51-.04.76-.14,4.6-1.69,9.27-3.45,13.87-5.22,1.14-.44,1.71-1.72,1.27-2.86-.44-1.14-1.72-1.71-2.87-1.27ZM336.55,648.81c-4.65,1.63-9.34,3.24-13.96,4.78-1.16.39-1.79,1.64-1.4,2.8.31.93,1.17,1.52,2.1,1.52.23,0,.47-.04.7-.11,4.64-1.55,9.36-3.16,14.03-4.8,1.16-.41,1.76-1.67,1.36-2.83-.41-1.16-1.67-1.76-2.83-1.36ZM377.52,478.33c.7-1,.46-2.39-.55-3.09-4.02-2.81-8.03-5.71-11.92-8.62-.98-.73-2.37-.54-3.1.45-.73.98-.53,2.37.45,3.1,3.93,2.94,7.98,5.87,12.04,8.7.39.27.83.4,1.27.4.7,0,1.39-.33,1.82-.95ZM251.73,674.01c-4.87,1.17-9.71,2.27-14.38,3.28-1.2.26-1.96,1.44-1.7,2.64.22,1.04,1.14,1.75,2.16,1.75.16,0,.31-.02.47-.05,4.7-1.02,9.57-2.13,14.47-3.31,1.19-.29,1.92-1.48,1.64-2.67-.29-1.19-1.48-1.93-2.67-1.64ZM391.61,627.61c-4.51,1.9-9.1,3.78-13.65,5.61-1.14.46-1.69,1.75-1.23,2.88.35.86,1.18,1.39,2.06,1.39.28,0,.56-.05.83-.16,4.56-1.83,9.17-3.73,13.71-5.63,1.13-.47,1.66-1.77,1.19-2.9-.47-1.13-1.77-1.66-2.9-1.19ZM329.69,442.24c.59,0,1.19-.24,1.62-.71.83-.9.78-2.3-.11-3.13-3.59-3.34-7.15-6.78-10.57-10.21-.86-.87-2.27-.87-3.13,0-.87.86-.87,2.27,0,3.14,3.46,3.47,7.05,6.95,10.69,10.33.43.4.97.59,1.51.59ZM401.62,491.31c-4.19-2.55-8.38-5.19-12.45-7.84-1.03-.67-2.4-.38-3.07.65-.67,1.03-.38,2.4.65,3.07,4.1,2.67,8.33,5.34,12.56,7.91.36.22.76.32,1.15.32.75,0,1.48-.38,1.9-1.07.64-1.05.3-2.41-.74-3.05ZM317.93,90.84c-.22-1.2-1.38-2-2.58-1.78-5,.92-9.91,2.1-14.59,3.5-1.17.35-1.84,1.59-1.49,2.76.29.96,1.17,1.58,2.12,1.58.21,0,.43-.03.64-.09,4.53-1.36,9.28-2.5,14.12-3.39,1.2-.22,2-1.38,1.78-2.58ZM252.33,333.15c-.55-1.09-1.88-1.54-2.98-.99-1.09.55-1.53,1.88-.98,2.98,2.2,4.37,4.54,8.8,6.95,13.14.4.73,1.16,1.14,1.94,1.14.36,0,.73-.09,1.07-.28,1.07-.6,1.46-1.94.86-3.01-2.39-4.29-4.7-8.66-6.87-12.98ZM280.28,666.58c-4.76,1.33-9.55,2.63-14.24,3.85-1.18.31-1.89,1.52-1.59,2.7.26,1,1.16,1.66,2.14,1.66.18,0,.37-.02.56-.07,4.71-1.23,9.53-2.53,14.32-3.87,1.18-.33,1.87-1.55,1.54-2.73-.33-1.18-1.55-1.87-2.73-1.54ZM272.63,374.66c.42,0,.85-.12,1.22-.37,1.02-.68,1.3-2.05.62-3.07-2.71-4.09-5.36-8.26-7.88-12.4-.64-1.05-2-1.38-3.05-.74-1.05.64-1.38,2-.74,3.05,2.55,4.19,5.23,8.41,7.97,12.54.43.64,1.13.99,1.85.99ZM291.39,394.9c-2.93-3.81-5.82-7.7-8.58-11.57-.71-1-2.1-1.22-3.09-.51-1,.71-1.23,2.1-.51,3.09,2.8,3.91,5.72,7.84,8.67,11.69l.18.24c.44.57,1.09.86,1.76.86.47,0,.95-.15,1.35-.46.97-.75,1.15-2.14.4-3.11l-.18-.23ZM237.45,305.12c-1.14.45-1.7,1.74-1.25,2.88,1.8,4.55,3.74,9.16,5.78,13.71.37.82,1.18,1.31,2.02,1.31.3,0,.61-.06.91-.2,1.12-.5,1.62-1.81,1.11-2.93-2.01-4.48-3.93-9.03-5.7-13.52-.45-1.14-1.74-1.7-2.88-1.25ZM222.9,680.23c-5.01.95-9.89,1.8-14.51,2.52-1.21.19-2.04,1.32-1.85,2.53.17,1.09,1.11,1.88,2.19,1.88.11,0,.23,0,.34-.03,4.67-.73,9.6-1.59,14.65-2.55,1.2-.23,1.99-1.39,1.76-2.59-.23-1.2-1.39-1.99-2.59-1.76ZM550.48,86.62c.64,0,1.27-.27,1.71-.81,3.15-3.82,6.42-7.49,9.71-10.92.85-.88.82-2.29-.06-3.13-.88-.85-2.29-.82-3.13.06-3.37,3.51-6.72,7.27-9.94,11.17-.78.94-.64,2.34.3,3.12.41.34.91.51,1.41.51ZM680.07,32.53c1.22.17,2.46.36,3.69.57,3.6.59,7.16,1.33,10.58,2.19.18.05.36.07.54.07.99,0,1.89-.67,2.15-1.68.3-1.19-.42-2.39-1.61-2.69-3.54-.89-7.22-1.65-10.94-2.27-1.26-.21-2.54-.4-3.79-.58-1.21-.17-2.33.67-2.51,1.88-.17,1.21.67,2.33,1.88,2.51ZM650.92,31.31s.09,0,.14,0c4.75-.3,9.64-.34,14.52-.12,1.22.05,2.26-.89,2.31-2.12.05-1.22-.89-2.26-2.12-2.31-5.03-.22-10.08-.18-14.99.13-1.22.08-2.15,1.13-2.07,2.35.07,1.18,1.05,2.08,2.21,2.08ZM594.93,48.14c.37,0,.75-.09,1.1-.29,4.22-2.42,8.58-4.61,12.96-6.51,1.12-.49,1.64-1.79,1.15-2.92s-1.79-1.64-2.92-1.15c-4.53,1.96-9.04,4.23-13.41,6.73-1.06.61-1.43,1.96-.82,3.03.41.71,1.16,1.11,1.92,1.11ZM570.98,65.36c.52,0,1.04-.18,1.46-.55,3.7-3.24,7.53-6.3,11.38-9.08.99-.72,1.22-2.1.5-3.09-.72-.99-2.1-1.22-3.09-.5-3.97,2.86-7.91,6-11.71,9.34-.92.81-1.01,2.21-.21,3.13.44.5,1.05.76,1.67.76ZM708.14,39.68c4.54,1.76,8.94,3.83,13.09,6.13.34.19.71.28,1.07.28.78,0,1.53-.41,1.94-1.14.59-1.07.21-2.42-.86-3.01-4.32-2.4-8.91-4.55-13.63-6.39-1.14-.44-2.43.12-2.87,1.26-.44,1.14.12,2.43,1.26,2.87ZM621.95,36.46c.21,0,.43-.03.64-.09,4.6-1.38,9.34-2.51,14.08-3.35,1.21-.21,2.01-1.36,1.8-2.57-.21-1.21-1.37-2.01-2.57-1.8-4.92.87-9.83,2.04-14.59,3.47-1.17.35-1.84,1.59-1.48,2.76.29.96,1.17,1.58,2.12,1.58ZM668.02,439.81c.42.35.93.53,1.44.53.63,0,1.25-.26,1.69-.78,3.19-3.75,6.37-7.6,9.46-11.43.77-.95.62-2.35-.34-3.12-.95-.77-2.35-.62-3.12.34-3.06,3.8-6.22,7.62-9.38,11.34-.79.93-.68,2.33.25,3.12ZM776.11,127.32c.96,4.65,1.76,9.49,2.38,14.4.14,1.12,1.1,1.94,2.2,1.94.09,0,.19,0,.28-.02,1.21-.15,2.08-1.26,1.92-2.48-.63-5.02-1.45-9.98-2.44-14.75-.25-1.2-1.42-1.97-2.62-1.72-1.2.25-1.97,1.42-1.72,2.62ZM781.99,183.49c-1.22-.08-2.27.85-2.35,2.07-.3,4.79-.74,9.7-1.3,14.61-.14,1.22.73,2.31,1.95,2.45.09,0,.17.01.25.01,1.11,0,2.07-.83,2.2-1.97.57-4.98,1.01-9.97,1.32-14.83.08-1.22-.85-2.27-2.07-2.35ZM779.8,156.29c.24,4.24.36,8.62.36,13.01,0,.54,0,1.08,0,1.63,0,1.22.98,2.22,2.2,2.23h.01c1.22,0,2.21-.98,2.22-2.2,0-.55,0-1.1,0-1.65,0-4.47-.12-8.93-.36-13.25-.07-1.22-1.11-2.17-2.34-2.09-1.22.07-2.16,1.11-2.09,2.34ZM761.33,86.44c.41.73,1.16,1.14,1.94,1.14.37,0,.74-.09,1.08-.28,1.07-.6,1.45-1.95.86-3.02-2.48-4.44-5.22-8.69-8.14-12.65-.73-.98-2.11-1.19-3.1-.46-.98.73-1.19,2.12-.46,3.1,2.82,3.81,5.45,7.9,7.84,12.17ZM772.54,113.2c.29.96,1.17,1.58,2.12,1.58.21,0,.43-.03.64-.1,1.17-.35,1.84-1.59,1.48-2.76-1.47-4.87-3.16-9.62-5.04-14.12-.47-1.13-1.77-1.67-2.9-1.2-1.13.47-1.67,1.77-1.19,2.9,1.82,4.37,3.46,8.97,4.89,13.7ZM762.2,271.69c-1.52,4.6-3.15,9.27-4.85,13.88-.42,1.15.16,2.42,1.31,2.85.25.09.51.14.77.14.9,0,1.75-.55,2.08-1.45,1.72-4.66,3.37-9.38,4.9-14.02.38-1.16-.25-2.42-1.41-2.8-1.16-.38-2.42.25-2.8,1.41ZM506.26,163.51c.26.1.53.15.79.15.89,0,1.73-.54,2.07-1.43,1.74-4.57,3.61-9.16,5.55-13.62.49-1.12-.03-2.43-1.15-2.92-1.12-.49-2.43.03-2.92,1.15-1.97,4.53-3.86,9.17-5.63,13.81-.44,1.14.14,2.42,1.28,2.86ZM532.04,110.3c.37.23.77.34,1.18.34.74,0,1.46-.37,1.88-1.04,2.64-4.19,5.38-8.29,8.17-12.17.71-1,.48-2.38-.51-3.09-.99-.71-2.38-.48-3.09.51-2.84,3.96-5.63,8.13-8.32,12.4-.65,1.04-.34,2.4.7,3.06ZM330.39,91.49c.06,0,.13,0,.19,0,4.85-.42,9.76-.59,14.54-.51,1.21,0,2.23-.96,2.25-2.18.02-1.22-.96-2.23-2.18-2.25-4.92-.08-9.99.1-14.99.53-1.22.1-2.12,1.18-2.02,2.4.1,1.16,1.07,2.03,2.21,2.03ZM359.61,91.94c4.78.57,9.59,1.4,14.31,2.47.16.04.33.06.49.06,1.01,0,1.93-.7,2.16-1.73.27-1.19-.48-2.38-1.67-2.65-4.87-1.1-9.84-1.96-14.77-2.55-1.22-.15-2.32.72-2.46,1.94-.15,1.22.72,2.32,1.94,2.46ZM339.02,448.44c-.8.93-.7,2.33.23,3.13,3.7,3.2,7.54,6.4,11.42,9.51.41.33.9.49,1.39.49.65,0,1.29-.28,1.73-.83.77-.95.61-2.35-.34-3.12-3.83-3.08-7.63-6.24-11.3-9.41-.93-.8-2.33-.7-3.13.23ZM307.22,420.57c.44.48,1.03.72,1.63.72.54,0,1.07-.19,1.5-.58.9-.83.96-2.23.13-3.13-3.32-3.62-6.58-7.32-9.7-11.02-.79-.94-2.19-1.05-3.12-.27-.94.79-1.05,2.19-.27,3.12,3.16,3.74,6.46,7.5,9.83,11.16ZM274.44,108.79c.39,0,.79-.1,1.15-.32,4.06-2.47,8.38-4.71,12.84-6.67,1.12-.49,1.63-1.8,1.14-2.92-.49-1.12-1.8-1.63-2.92-1.14-4.63,2.03-9.13,4.37-13.36,6.94-1.05.64-1.38,2-.74,3.05.42.69,1.15,1.07,1.9,1.07ZM387.93,98.34c4.54,1.52,9.1,3.3,13.56,5.28.29.13.6.19.9.19.85,0,1.66-.49,2.03-1.32.5-1.12,0-2.43-1.12-2.93-4.59-2.04-9.29-3.87-13.96-5.44-1.16-.39-2.42.24-2.81,1.4-.39,1.16.24,2.42,1.4,2.81ZM251.65,127.44c.6,0,1.19-.24,1.63-.72,3.26-3.54,6.79-6.87,10.51-9.91.95-.78,1.09-2.17.31-3.12-.77-.95-2.17-1.09-3.12-.31-3.88,3.17-7.57,6.65-10.96,10.34-.83.9-.77,2.3.13,3.13.43.39.96.59,1.5.59ZM517.87,136.28c.31.15.65.23.98.23.82,0,1.61-.46,1.99-1.24,2.18-4.43,4.46-8.82,6.8-13.02.59-1.07.21-2.42-.86-3.01-1.07-.59-2.42-.21-3.01.86-2.37,4.27-4.69,8.72-6.9,13.22-.54,1.1-.09,2.43,1.01,2.97ZM497.28,191.79c.19.05.37.07.56.07.99,0,1.89-.66,2.14-1.66.48-1.84,1.84-6.91,4.2-14.1.38-1.16-.25-2.42-1.41-2.8-1.16-.38-2.42.25-2.8,1.41-2.41,7.32-3.8,12.49-4.29,14.38-.31,1.19.41,2.39,1.59,2.7ZM438.81,126.34c3.77,2.95,7.54,6.13,11.2,9.42.42.38.95.57,1.48.57.61,0,1.21-.25,1.65-.73.82-.91.75-2.31-.16-3.13-3.73-3.37-7.58-6.6-11.43-9.62-.96-.76-2.36-.59-3.11.38-.76.96-.59,2.36.38,3.11ZM488.37,179.96c.43.63,1.13.97,1.84.97.43,0,.86-.12,1.24-.38,1.01-.69,1.28-2.07.59-3.08-2.74-4.04-5.69-8.11-8.76-12.1-.75-.97-2.14-1.15-3.11-.4-.97.75-1.15,2.14-.4,3.11,3.02,3.93,5.92,7.93,8.61,11.89ZM470.48,156.71c.44.51,1.06.77,1.68.77.51,0,1.03-.18,1.45-.54.93-.8,1.03-2.2.22-3.13-3.27-3.78-6.67-7.47-10.1-10.99-.85-.88-2.26-.89-3.13-.04-.88.86-.89,2.26-.04,3.13,3.37,3.45,6.71,7.08,9.92,10.79ZM550.14,544.34c-.69-1.01-2.07-1.27-3.08-.57-2.95,2.03-5.96,4.06-8.99,6.07-.24-.66-.79-1.19-1.52-1.39-4.72-1.25-9.49-2.58-14.18-3.96-1.17-.35-2.41.32-2.75,1.5-.35,1.17.33,2.41,1.5,2.75,4.37,1.29,8.81,2.53,13.21,3.71-.57.73-.64,1.77-.11,2.59.43.65,1.13,1,1.85,1,.42,0,.84-.12,1.22-.37,4.12-2.71,8.25-5.48,12.27-8.24,1.01-.69,1.27-2.07.57-3.08ZM963.25,420.42c-3.4,3.59-6.85,7.14-10.25,10.57-.86.87-.86,2.27.01,3.14.43.43,1,.64,1.56.64s1.14-.22,1.57-.65c3.43-3.45,6.9-7.03,10.32-10.64.84-.89.81-2.29-.08-3.13s-2.29-.81-3.13.08ZM942.5,441.31c-3.57,3.42-7.18,6.8-10.75,10.06-.9.82-.97,2.23-.15,3.13.44.48,1.04.72,1.64.72.53,0,1.07-.19,1.49-.58,3.6-3.28,7.24-6.69,10.84-10.14.88-.85.91-2.25.07-3.13-.85-.88-2.25-.91-3.13-.07ZM983.06,398.62c-3.25,3.72-6.54,7.43-9.79,11.01-.82.91-.76,2.31.15,3.13.42.39.96.58,1.49.58.6,0,1.2-.24,1.64-.73,3.27-3.6,6.58-7.33,9.85-11.07.8-.92.71-2.32-.21-3.13-.92-.81-2.32-.71-3.13.21ZM920.73,461.14c-3.73,3.22-7.53,6.41-11.28,9.47-.95.77-1.09,2.17-.32,3.12.44.54,1.08.82,1.72.82.49,0,.99-.16,1.4-.5,3.79-3.09,7.62-6.3,11.38-9.55.93-.8,1.03-2.2.23-3.13-.8-.93-2.2-1.03-3.13-.23ZM1040.86,328.55c-.99-.71-2.38-.49-3.09.51-2.91,4.05-5.84,8.07-8.7,11.94-.73.98-.52,2.37.47,3.1.4.29.86.43,1.31.43.68,0,1.35-.31,1.78-.9,2.87-3.89,5.81-7.92,8.73-11.99.71-.99.49-2.38-.51-3.09ZM1023.32,352.4c-.97-.74-2.37-.55-3.11.42-3.01,3.97-6.05,7.9-9.01,11.69-.75.96-.59,2.36.38,3.11.41.32.89.47,1.37.47.66,0,1.31-.29,1.75-.85,2.98-3.8,6.02-7.75,9.05-11.74.74-.97.55-2.37-.42-3.11ZM1005.13,375.72c-.95-.77-2.35-.62-3.12.33-3.11,3.85-6.27,7.67-9.38,11.38-.79.94-.66,2.34.27,3.12.42.35.92.52,1.42.52.63,0,1.26-.27,1.7-.79,3.12-3.72,6.3-7.57,9.43-11.44.77-.95.62-2.35-.33-3.12ZM874.01,496.97c-4.06,2.74-8.21,5.44-12.32,8.02-1.04.65-1.35,2.02-.7,3.06.42.67,1.14,1.04,1.88,1.04.4,0,.81-.11,1.18-.34,4.15-2.61,8.33-5.33,12.44-8.1,1.02-.68,1.28-2.06.6-3.08-.68-1.01-2.06-1.28-3.08-.6ZM796.51,538.66c-1.56.64-3.13,1.28-4.7,1.91-2.95,1.18-5.97,2.33-8.98,3.42-1.15.42-1.75,1.69-1.33,2.84.33.9,1.18,1.46,2.08,1.46.25,0,.51-.04.76-.13,3.05-1.11,6.11-2.27,9.11-3.47,1.59-.63,3.17-1.28,4.75-1.93,1.13-.47,1.67-1.76,1.2-2.89-.47-1.13-1.76-1.67-2.89-1.2ZM427.16,505.8c-4.32-2.28-8.65-4.66-12.88-7.06-1.07-.6-2.42-.23-3.02.83-.6,1.07-.23,2.42.83,3.02,4.27,2.42,8.64,4.82,13,7.12.33.17.68.26,1.03.26.8,0,1.56-.43,1.96-1.18.57-1.08.16-2.42-.92-3ZM823.26,526.53c-4.37,2.17-8.83,4.28-13.27,6.3-1.11.51-1.61,1.82-1.1,2.93.37.82,1.18,1.3,2.02,1.3.31,0,.62-.06.91-.2,4.48-2.03,8.99-4.17,13.41-6.36,1.1-.54,1.55-1.87,1-2.97-.54-1.1-1.87-1.55-2.97-1ZM849.12,512.6c-4.23,2.46-8.54,4.88-12.81,7.19-1.08.58-1.48,1.93-.9,3,.4.74,1.16,1.17,1.95,1.17.35,0,.72-.09,1.05-.27,4.32-2.33,8.68-4.77,12.94-7.26,1.06-.62,1.42-1.97.8-3.03-.62-1.06-1.97-1.41-3.03-.8ZM897.89,479.76c-3.91,3-7.89,5.96-11.83,8.8-.99.72-1.22,2.1-.5,3.09.43.6,1.11.92,1.8.92.45,0,.9-.14,1.29-.42,3.98-2.87,7.99-5.86,11.94-8.88.97-.75,1.15-2.14.41-3.11-.75-.97-2.14-1.15-3.11-.41ZM1057.85,304.27c-1.01-.69-2.39-.44-3.08.57-2.85,4.15-5.69,8.24-8.44,12.15-.7,1-.46,2.38.54,3.09.39.27.83.4,1.27.4.7,0,1.38-.33,1.82-.94,2.76-3.93,5.61-8.03,8.47-12.19.69-1.01.44-2.39-.57-3.08ZM1188.33,106.97c-.99-.72-2.38-.5-3.1.48-2.81,3.86-5.72,7.91-8.64,12.03-.71,1-.47,2.38.53,3.09.39.27.84.41,1.28.41.7,0,1.38-.33,1.81-.94,2.91-4.11,5.8-8.14,8.6-11.98.72-.99.51-2.38-.48-3.1ZM1222,60.94c-3.15,3.63-6.38,7.44-9.58,11.33-.78.94-.64,2.34.3,3.12.41.34.91.51,1.41.51.64,0,1.27-.27,1.71-.81,3.18-3.86,6.38-7.64,9.51-11.24.8-.92.7-2.32-.22-3.13-.92-.8-2.32-.7-3.13.22ZM1242.13,39.13c-3.39,3.44-6.83,7.05-10.24,10.75-.83.9-.77,2.3.13,3.13.43.39.96.59,1.5.59.6,0,1.19-.24,1.63-.71,3.37-3.66,6.78-7.24,10.14-10.64.86-.87.85-2.28-.02-3.13-.87-.86-2.28-.85-3.13.02ZM773.08,241.85c-1.19-.3-2.39.43-2.69,1.61-1.17,4.68-2.46,9.45-3.83,14.19-.34,1.18.33,2.41,1.51,2.75.21.06.41.09.62.09.96,0,1.85-.63,2.13-1.6,1.39-4.79,2.7-9.62,3.88-14.35.3-1.19-.43-2.39-1.61-2.69ZM1206.23,83.45c-.96-.76-2.36-.59-3.11.37-2.98,3.78-6.02,7.73-9.05,11.74-.74.98-.54,2.37.43,3.1.4.3.87.45,1.33.45.67,0,1.33-.3,1.77-.88,3.01-3.98,6.04-7.91,9-11.67.76-.96.59-2.36-.37-3.11ZM1290.25.94c-.71-1-2.09-1.24-3.09-.53-3.97,2.8-7.98,5.8-11.93,8.91-.96.76-1.13,2.15-.37,3.11.44.56,1.09.85,1.74.85.48,0,.96-.16,1.37-.48,3.89-3.06,7.84-6.01,11.75-8.77,1-.71,1.24-2.09.53-3.09ZM1263.77,18.78c-3.66,3.17-7.37,6.52-11.02,9.96-.89.84-.93,2.24-.09,3.13.44.46,1.02.7,1.61.7.54,0,1.09-.2,1.52-.6,3.61-3.4,7.27-6.71,10.89-9.84.93-.8,1.03-2.2.23-3.13-.8-.93-2.2-1.03-3.13-.23ZM1074.39,279.71c-1.02-.68-2.4-.4-3.07.62-2.78,4.19-5.54,8.32-8.21,12.27-.68,1.01-.42,2.39.6,3.08.38.26.81.38,1.24.38.71,0,1.41-.34,1.84-.98,2.67-3.96,5.44-8.1,8.23-12.3.68-1.02.4-2.4-.62-3.07ZM1106.56,230.1c-1.03-.66-2.4-.36-3.06.67-2.65,4.14-5.31,8.29-7.98,12.44-.66,1.03-.36,2.4.67,3.06.37.24.79.35,1.2.35.73,0,1.44-.36,1.87-1.02,2.67-4.16,5.33-8.31,7.98-12.45.66-1.03.36-2.4-.67-3.06ZM1090.58,254.97c-1.03-.67-2.4-.37-3.07.65-2.82,4.35-5.46,8.4-8.06,12.38-.67,1.02-.38,2.4.64,3.07.37.25.8.36,1.21.36.72,0,1.43-.35,1.86-1,2.61-3.98,5.25-8.04,8.08-12.4.67-1.03.37-2.4-.65-3.07ZM1171.2,131.06c-1.01-.69-2.39-.44-3.08.57-2.69,3.91-5.5,8.02-8.34,12.24-.68,1.02-.42,2.39.6,3.08.38.26.81.38,1.24.38.71,0,1.41-.34,1.84-.98,2.83-4.2,5.63-8.3,8.31-12.2.69-1.01.44-2.39-.57-3.08ZM1122.47,205.17c-1.03-.66-2.4-.36-3.06.67l-7.95,12.46c-.66,1.03-.36,2.4.68,3.06.37.24.78.35,1.19.35.73,0,1.45-.36,1.87-1.02l7.95-12.46c.66-1.03.36-2.4-.67-3.06ZM1138.45,180.29c-1.03-.66-2.4-.37-3.06.66-2.66,4.13-5.33,8.27-8,12.44-.66,1.03-.36,2.4.67,3.06.37.24.78.35,1.19.35.73,0,1.44-.36,1.87-1.02,2.67-4.16,5.33-8.31,7.99-12.43.66-1.03.37-2.4-.66-3.06ZM1154.64,155.55c-1.02-.68-2.4-.4-3.07.62-2.62,3.96-5.28,8-8.13,12.37-.67,1.03-.38,2.4.64,3.07.37.24.79.36,1.21.36.72,0,1.43-.35,1.86-1.01,2.84-4.36,5.5-8.39,8.11-12.34.68-1.02.4-2.4-.62-3.07ZM778.87,212.87c-1.21-.2-2.35.63-2.54,1.83-.77,4.75-1.67,9.61-2.67,14.44-.25,1.2.52,2.37,1.72,2.62.15.03.3.05.45.05,1.03,0,1.95-.72,2.17-1.77,1.01-4.89,1.92-9.81,2.7-14.63.2-1.21-.63-2.35-1.83-2.54ZM570.96,526.64c-3.88,2.9-7.87,5.83-11.87,8.69-1,.71-1.22,2.1-.51,3.09.43.6,1.11.93,1.8.93.45,0,.9-.13,1.29-.41,4.02-2.88,8.04-5.82,11.94-8.74.98-.73,1.18-2.12.45-3.1-.73-.98-2.12-1.18-3.1-.45ZM565.23,555.14c-4.78-.97-9.62-2.03-14.39-3.14-1.19-.28-2.38.46-2.66,1.65-.28,1.19.46,2.38,1.65,2.66,4.81,1.12,9.69,2.19,14.51,3.17.15.03.3.04.44.04,1.03,0,1.96-.73,2.17-1.78.24-1.2-.53-2.37-1.73-2.61ZM522.47,559.94c-4.11,2.6-8.33,5.2-12.54,7.75-1.05.63-1.38,2-.75,3.04.42.69,1.15,1.07,1.9,1.07.39,0,.79-.1,1.15-.32,4.23-2.56,8.47-5.18,12.61-7.79,1.04-.65,1.35-2.02.69-3.06-.65-1.04-2.02-1.34-3.06-.69ZM594.26,560.14c-4.83-.68-9.72-1.45-14.55-2.28-1.21-.21-2.35.6-2.56,1.81-.21,1.21.6,2.35,1.81,2.56,4.87.84,9.81,1.61,14.69,2.3.11.01.21.02.31.02,1.09,0,2.04-.8,2.19-1.91.17-1.21-.67-2.33-1.89-2.5ZM594.13,508.51c-3.75,3.08-7.62,6.17-11.49,9.19-.96.75-1.13,2.15-.38,3.11.44.56,1.09.85,1.75.85.48,0,.96-.15,1.36-.47,3.89-3.05,7.78-6.16,11.56-9.26.95-.78,1.09-2.17.31-3.12-.78-.95-2.17-1.09-3.12-.31ZM509.74,542.92c.38-1.16-.26-2.42-1.42-2.79-4.64-1.51-9.32-3.11-13.92-4.76-1.15-.41-2.42.19-2.83,1.34-.41,1.15.19,2.42,1.34,2.83,4.64,1.66,9.36,3.27,14.04,4.8.23.07.46.11.69.11.93,0,1.8-.59,2.11-1.53ZM445.28,603.11c-4.38,2.17-8.85,4.33-13.27,6.44-1.11.53-1.58,1.85-1.05,2.95.38.8,1.17,1.27,2,1.27.32,0,.64-.07.95-.22,4.45-2.11,8.93-4.29,13.33-6.47,1.1-.54,1.55-1.87,1-2.97-.54-1.1-1.87-1.55-2.97-1ZM497.25,575.22c-4.22,2.45-8.53,4.91-12.81,7.3-1.07.6-1.45,1.95-.85,3.02.41.73,1.16,1.14,1.94,1.14.37,0,.74-.09,1.08-.28,4.3-2.4,8.64-4.87,12.88-7.34,1.06-.62,1.42-1.97.8-3.03-.62-1.06-1.97-1.42-3.03-.8ZM453.53,518.78c-4.44-2.03-8.91-4.15-13.28-6.3-1.1-.54-2.43-.09-2.97,1.01-.54,1.1-.09,2.43,1.01,2.97,4.41,2.17,8.92,4.31,13.4,6.35.3.14.61.2.92.2.84,0,1.65-.48,2.02-1.3.51-1.11.02-2.43-1.1-2.94ZM429.44,114.07c-4.19-2.8-8.48-5.43-12.76-7.81-1.07-.6-2.42-.21-3.01.86-.59,1.07-.21,2.42.86,3.01,4.17,2.32,8.36,4.88,12.45,7.62.38.25.81.37,1.23.37.72,0,1.42-.35,1.84-.98.68-1.02.41-2.39-.61-3.08ZM608.29,502.42c3.76-3.23,7.5-6.52,11.13-9.79.91-.82.98-2.22.16-3.13-.82-.91-2.22-.98-3.13-.16-3.6,3.24-7.32,6.51-11.05,9.72-.93.8-1.04,2.2-.24,3.13.44.51,1.06.77,1.68.77.51,0,1.02-.18,1.44-.53ZM480.61,530.23c-4.55-1.77-9.14-3.64-13.63-5.53-1.13-.48-2.43.05-2.9,1.18-.48,1.13.05,2.43,1.18,2.91,4.53,1.91,9.15,3.79,13.74,5.58.26.1.54.15.8.15.89,0,1.72-.54,2.07-1.41.44-1.14-.12-2.43-1.26-2.87ZM471.5,589.6c-4.29,2.3-8.68,4.61-13.05,6.86-1.09.56-1.52,1.9-.96,2.99.39.76,1.17,1.2,1.97,1.2.34,0,.69-.08,1.01-.25,4.4-2.26,8.81-4.59,13.12-6.9,1.08-.58,1.48-1.92.91-3-.58-1.08-1.92-1.48-3-.91ZM754.92,298.06c-1.13-.46-2.43.08-2.89,1.22-1.83,4.49-3.77,9.04-5.76,13.53-.5,1.12,0,2.43,1.12,2.93.29.13.6.19.9.19.85,0,1.66-.49,2.03-1.32,2.01-4.53,3.97-9.13,5.82-13.66.46-1.13-.08-2.43-1.22-2.89ZM743.05,325.12c-1.1-.53-2.43-.07-2.96,1.03-2.11,4.38-4.33,8.8-6.59,13.15-.56,1.09-.14,2.42.94,2.99.33.17.68.25,1.02.25.8,0,1.57-.44,1.97-1.19,2.28-4.39,4.52-8.85,6.65-13.27.53-1.1.07-2.43-1.03-2.96ZM740.54,556.15c-4.74,1.03-9.59,1.98-14.41,2.83-1.21.21-2.01,1.36-1.8,2.57.19,1.08,1.12,1.84,2.18,1.84.13,0,.26-.01.38-.03,4.89-.86,9.8-1.82,14.59-2.86,1.2-.26,1.95-1.44,1.69-2.64-.26-1.2-1.44-1.95-2.64-1.69ZM714.5,376.85c-1.03-.66-2.4-.35-3.06.68-2.62,4.12-5.33,8.26-8.07,12.31-.69,1.01-.42,2.39.59,3.08.38.26.81.38,1.24.38.71,0,1.41-.34,1.84-.98,2.76-4.08,5.5-8.26,8.14-12.41.66-1.03.35-2.4-.68-3.06ZM729.53,351.4c-1.07-.6-2.42-.21-3.02.86-2.37,4.25-4.85,8.54-7.36,12.74-.63,1.05-.28,2.41.77,3.04.36.21.75.31,1.13.31.75,0,1.49-.39,1.91-1.08,2.53-4.24,5.03-8.57,7.42-12.86.6-1.07.21-2.42-.86-3.02ZM768.92,548.67c-4.62,1.44-9.36,2.8-14.11,4.05-1.18.31-1.89,1.52-1.58,2.71.26.99,1.16,1.65,2.14,1.65.19,0,.38-.02.57-.07,4.81-1.27,9.62-2.65,14.3-4.1,1.17-.36,1.82-1.61,1.46-2.78-.36-1.17-1.61-1.82-2.78-1.46ZM623.55,563.35c-4.85-.38-9.78-.84-14.67-1.38-1.21-.13-2.31.74-2.45,1.96-.13,1.22.74,2.31,1.96,2.45,4.93.54,9.91,1.01,14.81,1.39.06,0,.12,0,.17,0,1.15,0,2.12-.88,2.21-2.04.09-1.22-.82-2.29-2.04-2.38ZM747.3,60.16c-3.52-3.59-7.32-6.95-11.3-9.98-.97-.74-2.36-.55-3.11.42-.74.97-.55,2.36.42,3.11,3.81,2.9,7.45,6.12,10.82,9.55.43.44,1.01.67,1.58.67s1.12-.21,1.55-.63c.87-.86.89-2.26.03-3.13ZM652.96,564.68c-4.86-.06-9.81-.2-14.71-.42-1.23-.05-2.26.89-2.31,2.11-.06,1.22.89,2.26,2.11,2.31,4.95.22,9.95.37,14.86.43h.03c1.21,0,2.2-.98,2.22-2.19.01-1.22-.97-2.23-2.19-2.24ZM658.08,447.77c-3.24,3.61-6.6,7.24-9.99,10.8-.84.89-.81,2.29.08,3.13.43.41.98.61,1.53.61.59,0,1.17-.23,1.61-.69,3.42-3.59,6.8-7.26,10.07-10.89.82-.91.74-2.31-.17-3.13-.91-.82-2.31-.74-3.13.17ZM640.95,469.1c-.86-.87-2.27-.87-3.13,0-3.44,3.43-6.99,6.88-10.55,10.25-.89.84-.93,2.24-.08,3.13.44.46,1.02.69,1.61.69.55,0,1.1-.2,1.52-.61,3.59-3.4,7.17-6.88,10.63-10.33.87-.86.87-2.27,0-3.13ZM698.06,401.41c-.99-.71-2.38-.49-3.09.51-2.83,3.95-5.77,7.93-8.74,11.84-.74.97-.55,2.37.42,3.11.4.3.87.45,1.34.45.67,0,1.33-.3,1.77-.88,2.99-3.94,5.96-7.96,8.82-11.94.71-.99.49-2.38-.51-3.09ZM711.61,561.22c-4.8.64-9.71,1.21-14.6,1.67-1.22.12-2.11,1.2-2,2.42.11,1.15,1.07,2.01,2.2,2.01.07,0,.14,0,.21-.01,4.94-.47,9.91-1.04,14.77-1.69,1.21-.16,2.06-1.28,1.9-2.49-.16-1.21-1.28-2.07-2.49-1.9ZM682.35,564.01c-4.84.28-9.78.48-14.69.59-1.22.03-2.19,1.04-2.17,2.27.03,1.21,1.01,2.17,2.22,2.17.02,0,.03,0,.05,0,4.96-.11,9.95-.31,14.85-.6,1.22-.07,2.16-1.12,2.08-2.34-.07-1.22-1.12-2.15-2.34-2.08Z"/></g></svg>