<?xml version="1.0" encoding="UTF-8"?>
<svg id="Layer_2" xmlns="http://www.w3.org/2000/svg" version="1.1" viewBox="0 0 893.6 889.3">
  <!-- Generator: Adobe Illustrator 30.0.0, SVG Export Plug-In . SVG Version: 2.1.1 Build 123)  -->
  <defs>
    <style>
      .st0 {
        fill: #a94442;
        fill-rule: evenodd;
      }
    </style>
  </defs>
  <g id="Layer_1-2">
    <path class="st0" d="M424.8.2c-6.3.2-11.1.5-11.9.9-.8.3-2,1.2-2.8,1.9l-1.5,1.4v-1.2c0-1.5-.6-1.7-5.3-1.7-14.8,0-49.4,5.7-76.1,12.4-20.6,5.2-59.4,18.9-59.4,20.9s1.7,1,4.6,1.6c.8.2,1.4.7,1.7,1.4.6,1.5.5,5.1,0,5.1s-2.9-1.6-5.9-3.6l-5.4-3.6-13.2,6.5c-20.6,10.1-33.5,17.5-52.5,30.2-21.5,14.4-41.5,30.1-56.4,44.3-4.6,4.4-5,5.2-3.4,7.2,1.8,2.2.6,3.1-1.8,1.3l-1.3-1-1.5.9c-2.7,1.7-18,17.6-27.2,28.3-37.2,43.1-64.8,91.6-83.4,146.4-4.8,14.2-9.4,30.5-9.4,33.6s.5,1.6,1.4,2.4c1.8,1.5,1.4,2.4-.8,1.7-1.2-.4-1.7-.4-1.9,0-1,1.6-5.3,24-5.7,30l-.3,3.8,1.3,1.3c1.4,1.3,2.4,4.4,2.4,7.7s-.7,3-2.9,3.4c-1,.1-2,.5-2.3.8-2.6,2.6-3.8,22.5-3.8,63.6,0,32.4.5,41.3,3.9,63,6.2,40.3,17.7,80.6,32.3,113.3,32.1,71.6,84,135.1,146.8,179.9,12.7,9.1,21.8,14.9,23.2,14.9s1.6.5,2.5,1.1,2.1,1.1,2.6,1.1,1.5.7,2.4,1.8c2.6,3.3,12.7,9.3,31.3,18.9,29.9,15.4,57.6,25.8,90.9,34.1,16.4,4.1,43,9,54.6,9.9,2.6.2,6.2.6,8.1.9,4.7.6,15.7,1.3,32,1.9,45,1.7,87.3-2.8,133.2-14.2,11.7-2.9,14.9-4.1,15.2-5.6.4-1.7,1.5-2.2,3.1-1.3,1.3.8,1.5.7,5.5-.3,9.3-2.4,28.3-9.5,41.5-15.5,32.7-14.8,70.6-38.1,98.3-60.5,3.1-2.5,6.5-5.4,7.6-6.4,1.8-1.8,2-2.1,1.7-3.5-.2-1.3-.2-1.6.6-1.9.5-.2,1.2,0,1.6.2.5.4,1,.3,2.3-.6,9.5-6.3,40.4-37.9,54.7-56,6.6-8.3,7.4-9.6,7.8-12,.3-1.8.4-2.1,1-1.6.9.8,2.1-.4,7.4-7.5,7.8-10.4,18.9-27.5,27.7-42.7,6.2-10.7,7.2-12.9,7.4-16.9.2-3.1.3-3.4,1.5-4,1.8-.9,3.4-3,6-8.2,9.7-19.3,25-66.1,31-94.8,1.5-7.2,1.5-6.9-.6-6.6-1.6.3-1.8.2-1.8-.7s.6-1.2,1.8-1.9c1-.5,2.1-1.5,2.4-2.2.6-1.2,4.3-25.3,5.2-34.7.7-7.1,1.1-60.8.5-77.2-.6-17.7-2-30-5.5-49.5-14.2-79.3-47.6-149.4-99.7-208.8-7.8-9-22.4-23.9-23.7-24.3-.5-.2-1.2,0-1.8.5-.8.8-.9.8-1.5,0-.3-.5-.8-1.7-.9-2.7-.4-2.5-2.4-5-9-11.5-12.2-11.8-33.6-29.2-49.6-40.1-17.6-12-44.1-27.2-55.1-31.6-1.7-.7-4.3-1.4-5.6-1.5-2-.2-2.5-.4-2.6-1.2-.3-1.5-1-2.1-5.2-4.1-5.5-2.6-12.1-4.8-13.4-4.4-.8.2-1.1,0-1.3-.7-.2-.7-1.4-1.5-4-2.7-10-4.7-40.8-14.5-53-16.9-3.5-.7-3.9-.7-5,0-1.3.8-2.7.6-2.7-.4s-5.5-2.7-16.9-4.9c-19.9-3.8-50.3-6.6-80-7.2-6-.1-13.2-.3-16-.4-2.9,0-9.9,0-15.8.2M434.4,3.3c-1.8,1.1-2.2,1.7-1.5,2.5.9,1.1,1.7.8,2.9-1,1.6-2.4,1.1-3-1.4-1.5M377.2,7.9c-.6.6-.7,1.7-.1,1.7s.6-.3,1-.7c.7-.9,0-1.8-.8-1M384.5,11c-.2.3-.1.7.1,1,.7.7,2.6.3,2.6-.5s-2.2-1.2-2.7-.4M521.9,12.3c-.8,1.2-1,2.7-.3,2.7s1.4-1.7,1.3-2.8c-.1-1-.2-1-.9.1M334.6,15.2c0,.3-.3,1.3-.4,2.3-.1,1-.4,1.9-.5,2-.1.1-1.3,0-2.5-.3-3.1-.7-4.9-.7-4.9,0,0,2.8,8.6,3,11.4.2,1.5-1.5,1.5-2.2.3-3.7-1-1.2-3-1.6-3.3-.6M489.2,19.2c-1.7.8-1,1.9,1.2,2.1,2.5.2,3.2-.5,2.1-1.7-.9-1-1.8-1.1-3.3-.4M517.3,20c-.2.3,0,.7.2,1,.6.6,2,0,1.8-.7-.2-.8-1.5-1-1.9-.3M377.3,21c-.3.5.9,1.7,1.6,1.7.8,0,1.5-.9,1.2-1.5-.3-.8-2.3-1-2.8-.2M424.6,21.4c-26.3,1.1-57.7,5.4-86,11.7-5.4,1.2-11.2,2.4-12.8,2.6-1.6.2-4.2,1-5.9,1.7-1.6.7-6.4,2.4-10.6,3.8-42.6,14.4-81.3,35.1-121.1,64.9-21,15.7-33.7,27.1-51.6,46-15.7,16.6-26.2,28.9-36.3,42.4-3,4-5.7,7.1-6.4,7.6-.7.4-1.3,1-1.3,1.4,0,1.1-2,4.8-6.7,12.3-26.5,42.5-46.2,90.4-55.8,135.9-9.6,45.4-12.1,91.6-7.5,138.6.6,6.1,1.3,14.4,1.6,18.5.3,4.1.8,8.1,1.1,8.9.3.8,1.9,7,3.4,13.7s4.5,19.3,6.7,28,4.1,17,4.2,18.5c.2,2.2.5,3.1,2,5.2,1,1.4,2.3,3.8,2.8,5.4,7.8,21.2,21.9,51.2,33.2,70.3,23.6,39.9,60.3,81.5,100.4,113.8,14.9,12,39.3,28.5,59.4,40.1,11.6,6.7,11.8,6.9,11.8,9.7s.3,3.6,1.1,3.6,2.9-2.5,2.9-3.4.3-.6.6-.6,5.7,2.4,11.8,5.3c6.1,2.9,14.1,6.6,17.7,8.2,7,3,11.2,5.2,11.5,6,.1.3,1.3.5,2.8.5,4.9,0,21.6,6.4,22.5,8.5.6,1.3,1.4,1.4,1.4.2s.2-.9.5-.9,3.7.8,7.5,1.8c31.1,7.9,56.9,12.1,89.4,14.7,12.5,1,47.1,1.2,57.8.2,35.2-3,61.8-7.5,88.7-15,7.7-2.2,25.8-8.1,37.4-12.3l4.8-1.7,1.6,1.5,1.6,1.5.5-1.3c.2-.6.5-1.2.7-1.8.4-1.2,4.8-3.8,19.3-11,24.3-12.2,32.3-16.7,49-27.8,29.8-19.8,51.2-37.4,74-61.1,10.7-11,14-14,16-14s1.4,0,1.4-1.9c0-2.3.7-3.4,8.7-13.6,33-41.7,54-78.7,69.8-123.1,3.2-9,4.7-12.2,5.6-12.2s1.3-1.2.7-2c-.7-.9-.2-3.7,3.1-18,4.7-19.8,8.6-41.4,10.8-59.2,2-16.2,3-41.3,2.3-60.3-1.2-34.9-4.7-61.6-11.8-91.8-1.2-5.3-2.4-10.8-2.5-12.1s-.5-2.9-.9-3.4c-1.4-2.2-5.1-14.9-5.1-17.6s.3-1.5.7-1.7c1-.4.6-1.8-.7-2.1-1.7-.4-2.5-1.9-6.5-12.2-2.1-5.3-5.2-13-7-17.1-5.4-12.4-8.1-19.2-8.1-20.4s-.3-1.1-.7-1.1c-1,0-2.5-2.2-7.2-11-14.4-26.5-31.5-51.1-51.3-73.6-28.9-32.9-52.6-53.7-87.3-76.7-49-32.5-95.4-51.9-150.5-63-32.2-6.5-72.9-9.4-109.5-7.9M336.3,22.4c-.3,1.3,0,2,.9,2s1.3-1.7.7-2.5c-.8-.9-1.3-.8-1.6.5M546.1,22.9c-.9.9-.2,2.5,1.1,2.5s.9-.2.8-1.4c-.2-1.7-.9-2.1-1.9-1M581.4,25.8c0,.7.4,1.6.9,2.1,1.6,1.5,2.5-.4,1.1-2.4-1-1.4-2-1.3-2,.3M310.6,29.1c-.8.8-.7,1.2.5,2,.9.6,1.3.6,2,.2,1.5-.8,1-2.4-.7-2.6-.7,0-1.6.1-1.9.4M621.9,41.1c-.7,1.2-.6,1.4.2,1.4s1.4-1.3.8-1.9c-.3-.3-.6-.2-1,.5M431.8,48.1c-.7.7-1.1,1.8-1.4,3.6-.4,2.8,0,8.5.7,9.8.5.9,2,1.1,9.9,1.8,3.1.2,6.3.7,7.1,1l1.5.5-.3,15.8c-.2,8.7-.6,24.6-1,35.4-.8,22.8-.8,32.8-.2,34.4.6,1.5,2.8,2.1,7.7,2.1s7-.6,7.4-1.6c.6-1.6,1.1-9.7,1.6-24.7.6-19.8.5-26.7-.6-27.9-1-1.1-1-1.5-.1-1.5s1.5-1.9,2-9.6c.2-4,.7-10.7.9-14.7.3-4.6.7-7.6,1-8,.4-.4,3.2-.7,8.1-.9,7-.4,7.6-.5,8.6-1.4,1.4-1.3,2.1-4.7,2-8.7-.1-2.7-.3-3.2-1.3-4-1.7-1.3-7.4-1.6-31.6-1.9l-21.1-.2-1,1h0ZM356,56.9c-12.2,1.6-21,9.1-23.2,19.6-.9,4-.9,6.5,0,10.9,1,5,2.5,7.8,6.5,11.8,4.5,4.6,8.3,7.4,22.6,16.8,15.3,10.1,19.4,13.9,20.4,19.2.5,2.6-.5,5-3.1,7.6-4.9,4.7-11.4,4.9-15.3.5-.8-.9-2.3-3.4-3.5-5.6-3-5.7-3.5-6.2-6.5-5.9-2.6.3-7.6,2-9.4,3.1-1.7,1.1-1.9,2.7-.7,6.3,2.4,7.7,8,15.2,13,17.8,4.2,2.1,13.8,2.9,20.9,1.6,10-1.8,18.2-9.6,20.5-19.6.8-3.4.7-9.5-.2-13.1-1.2-4.7-3.9-9.9-6.5-12.5-3.1-3.1-6.6-5.5-19.8-13.4-6.1-3.7-12-7.4-13.3-8.3-3.5-2.6-7.9-6.9-8.9-8.9-1.2-2.4-1.2-5.8,0-8.1,1.8-3.4,6.7-5.7,10.8-5,2.2.4,6.6,4.6,7.8,7.4.5,1.2,1.7,2.8,2.5,3.6,1.3,1.2,1.8,1.3,3,1.1,2.4-.4,8.3-2.8,9.6-3.8,1.1-.9,1.2-1.2,1-3.2-.3-3.8-3.1-8.9-7.1-12.9-1.9-1.9-4.4-3.9-5.6-4.6-4.6-2.3-10.2-3.2-15.5-2.5M540.7,58.6c-1.1,1.2-4.3,11.3-14.6,46.4-14.2,48.2-14.4,49.2-12.9,50.8,2,2.1,8.9,4,11.9,3.2,2.2-.6,2.3-.9,6.6-15.3,4.5-15.1,6.4-20.5,7.4-21.4.8-.8,1.1-.8,2.8-.2,1.2.4,2.1,1.1,2.5,1.8.7,1.4,1.3,10.8,1.9,27.2.2,6.9.6,12.8.9,13.6.8,2.3,7.3,5.1,11.6,5.1s1.9-.2,2.4-1.5c.7-1.7.8-10.6.2-30.5l-.4-13.3,4.7-2.4c9.3-4.7,14.8-12.3,17.3-24,1.2-5.4,1.1-14.1-.2-17.9-3.3-10.1-12.5-16-33.1-21.3-6.2-1.6-8-1.7-9-.5M552.2,76.2c-1.2.7-8.8,27.8-8.5,30.2.2,1.6,1.7,2.2,7.2,2.8,3.5.4,5.2.4,6.6,0,5.3-1.4,10-10.6,10.1-19.6,0-7.1-2.6-10.2-11.1-12.8-3.5-1.1-3.5-1.1-4.3-.6M191.4,80.9c-.3.8.1,1.6.9,1.6s1.2-1.1.6-1.7c-.7-.7-1.2-.6-1.5.2M260.8,90.1c-14.1,7.2-19.8,10.3-22.2,12.1-2.8,2.1-3.1,1.4,18.7,44.7,22,43.6,24.2,47.8,26.1,48.5.8.3,13.4-6,24.7-12.3,12.2-6.9,14.6-8.5,14.6-9.7,0-2.6-4.5-9.8-6.1-9.8s-6.1,2.8-12.8,6.1l-12.3,6.1-.8-1c-2.3-3-11.3-20.5-13-25.3-.6-1.7-.6-1.7.9-3,.9-.7,4.2-2.7,7.4-4.4,6.2-3.3,9.6-5.6,9.9-6.5.4-1.1-1.6-5.6-3.5-7.7-1.7-1.9-2-2.1-3.4-1.9-.9.1-5.4,2.1-10,4.4s-8.7,4-9.1,3.9c-1.1-.4-12.5-22.6-12.5-24.4s3.1-2.9,11.5-7.2c11.1-5.8,12.8-6.9,12.8-8,0-1.7-2.7-6.6-4.9-8.9-1.1-1.2-2.3-2.2-2.5-2.2s-6.3,3-13.5,6.7M191.8,84.9c-.8.8-.7,1.5.3,2.3.7.7.9.7,1.4,0,1.3-1.5-.3-3.8-1.7-2.4M456.1,92.5c-1.1,1.6-.8,3.5.5,2.7.6-.4,1.5-2.1,1.5-3s-1.2-.9-2,.3M461.4,93.1c-.6,1.5,1.1,3.1,2.2,2.1.4-.3.3-.8-.3-1.6-.9-1.3-1.5-1.5-1.9-.5M262.6,94.1c-.2.2-.3.8-.3,1.4,0,1.1,0,1.1.9.3.5-.4.9-1.1.9-1.4,0-.6-1-.8-1.5-.3M652.8,106.1c-1.3,1.3-10.5,11.6-20.5,22.8-19.6,22.1-27.5,30.9-36.7,40.7-8.3,9-8.8,9.5-8.8,11s.5,1.7,1.9,2.9c2.1,1.7,7.5,4.8,8.4,4.8s4-2.6,10-8.5c5.6-5.5,5.8-5.6,6.8-5,3.3,2,13.4,9.6,14,10.6.7,1.1.7,1.4-1.8,9.1-1.4,4.4-2.6,8.6-2.5,9.4,0,3.2,9,9.2,11.7,7.9,1.1-.6,2.2-3.3,18.3-46.6,13.4-36,16.4-44.1,17.8-48.5l.8-2.6-1.2-1.1c-3.1-2.9-13.3-9.1-15-9.1s-1.9,1.1-3.2,2.4M721.3,108.1c0,1.1.8,1.7,1.4,1.1.3-.3,0-.7-.5-1.2-.9-.8-.9-.8-.9.1M158,111.1c-.6.8-.5,2.2.3,2.4.7.2,1.2-1.5.7-2.4-.4-.6-.5-.6-1,0M734.9,111.9c-.7.7-.7,2.6,0,2.6s1.7-1,1.7-2.1-.8-1.4-1.7-.5M157.5,121c0,.3.3.9.7,1.2.5.4.7.4.9-.2.1-.4.1-.9,0-1.2-.4-.7-1.6-.6-1.6.2M647,135.8c-7.2,7.8-19,21.3-20.9,23.9-2.2,3-2.4,3.8-1,5.1,1.8,1.6,7.9,5.5,8.6,5.5s2.7-3.6,9.5-19.6c3.2-7.4,6.1-14.2,6.5-15.1,1.1-2.1,1.5-3.6,1-3.6-.2,0-1.9,1.7-3.8,3.7M186.3,139.6c-3.1,1.5-7.6,6-7.6,7.4s1.5,2.9,4.1,6c6.9,8.3,25.6,29.1,38.2,42.4,5.9,6.3,11.4,12.7,12.3,14.5,2.8,5.3-3.3,13.5-10,13.5-1.5,0-3.1-.3-4.3-.9-2.8-1.4-12.6-11.5-30.6-31.4-16.3-18.1-25.2-27.4-26.2-27.4s-5.9,3.4-7.8,5.5c-1.1,1.2-1.9,2.5-1.9,3.1,0,1.7,9.5,13.1,31.3,37.5,19.7,22.1,24.9,26.9,31.5,29.4,7.9,2.9,20.7-1.9,27.7-10.5,4.3-5.3,6.2-10.6,6.2-17.1,0-4.8-1-8.2-3.8-12.4-2.3-3.5-4-5.5-15.5-17.8-7.2-7.7-14.4-15.5-21.5-23.2-11.8-12.7-17.2-18.3-19.1-19.3-.5-.3-1.5,0-3.1.8M559,159.1c-.8.8-.7,1.3.3,1.3s1.1-.4,1.4-.9c.4-.8.3-.9-.3-.9s-1.1.2-1.4.5M268.1,159.8c-.8.8-.3,1.6.9,1.4.7,0,1.2-.4,1.2-.8,0-.7-1.6-1.2-2.2-.6M556.8,163.3c-.7,2.6.9,3.3,2.8,1.3,1.4-1.5,1.2-2.1-.8-2.3-1.4-.1-1.7,0-1.9,1M272.4,170.9c-.1.4-.1.9,0,1,.4.4,1.9-.5,1.7-1.1-.2-.7-1.5-.7-1.8,0M784.5,174c-.5,1.3,0,4.1.7,4.1s.7-.6.7-2.2-.8-3.3-1.4-1.9M430,175.1c-11.4.6-25.3,2.4-38,4.9-40.8,8.2-79.8,25.1-109.3,47.2-23,17.3-50.9,47.1-66.9,71.3-10.3,15.6-16.3,27.5-24.7,49-7.4,19.1-12.8,41.3-15.4,64.4-.9,7.5-.9,9.2,0,9.9,1.2,1,1.3,3,.3,4.7-1.5,2.4-1.8,4-2.2,11-.5,8,.1,24.4,1.3,36.3,5.2,50.9,26.2,102.9,56.9,141.3,10,12.5,24.4,27.4,35.5,36.9,40.9,34.9,88.6,56.1,142.9,63.5,11.9,1.6,29.3,2.2,48.6,1.6,15.1-.5,21.6-1,32.9-2.8,27.6-4.3,53.5-12.9,81.2-27.2,64-32.8,113.2-91.7,134.9-161.9,5.2-16.7,9.3-37.3,10.6-52.8,1.2-14.7,1-43.6-.5-55.7-2.6-21.6-9.3-50-16.3-68.7-7.8-21-27.1-56-31.9-57.8-1-.4-1.3-.9-1.5-2.1-.3-1.9-3.8-7.2-9.3-14.2-4.8-6.1-29.8-31.2-37.3-37.5-30.2-25.1-64.2-42.1-105.1-52.4-11.9-3-21.2-4.8-26.1-5-4.3-.2-4.6-.2-6.2,1-2,1.4-3.2,1.5-2.9.4.9-2.7.9-2.7-.3-3-6.7-1.7-36.3-3-51.4-2.2M440.5,180.9c-.4.5-.4.8,0,1.2.6.6,1.9.2,1.9-.7s-1.2-1.2-1.8-.5M82.5,184.1c-.4,1,.6,1.9,1.3,1.2.6-.6.2-1.9-.5-1.9s-.6.3-.8.7M431.5,189.2c-35.6,1.7-67.2,10.2-100.4,27-38.5,19.4-70.3,45.6-93.4,76.7-16.8,22.6-31.2,51.8-39.2,79.3-7.7,26.6-11,48.2-11,73.1s2.7,43.4,9.9,70.1c7.9,29,17.1,49.2,34.3,74.9,10.4,15.5,18.4,24.9,34.1,40.1,17.9,17.3,34.8,29.7,56.4,41.3,30.5,16.4,62.1,26.5,93.4,29.8,15.1,1.6,42.1,1.9,57.4.7,21.2-1.8,48.7-8.3,69.1-16.5,11.1-4.5,24.9-11.1,32.2-15.5,4.7-2.8,5.1-3,7.9-3.5,1.7-.3,2.6-.9,4.7-3,1.5-1.4,5.6-4.8,9.2-7.5,16.1-12.2,24-18.8,33.5-28.3,21-21,39.8-47.7,51.9-73.9,22.8-49.1,29.2-102.8,18.9-157.4-9.2-48.8-31.9-92.5-66.3-127.9-25.3-26-52.8-44.4-90.3-60.4-26.2-11.2-55.4-17.4-88.9-18.9-10.5-.5-12.9-.5-23.6,0M346.5,193.9c-.4.5-.5.8,0,1.2.7.7,2,0,1.8-.8-.2-1-1-1.2-1.7-.4M79.3,204.3c.2,1,1.9,1.1,1.9.1s-.5-.8-1.1-.8c-.8-.1-1,0-.9.7M823.3,206.6c-.5.4-.4,3.7.1,3.9.2.1.5-.1.7-.6.2-.5.7-1.1,1.2-1.4.9-.5.9-.5.1-1.4-.8-.9-1.6-1.1-2.2-.6M329.2,211.9c-.9.9-.9,1.6-.1,1.6s2.2-1.6,1.8-1.9c-.5-.5-.9-.4-1.7.4M79.2,214.4c0,.6.3.9.9.9,1,0,1.2-.5.4-1.3-.8-.8-1.3-.7-1.3.4M114.3,219.7c-2.5,2.8-5.1,8-4.5,9.1.6,1.1,8,6.4,19.8,14.1,9,5.9,27.9,18.4,29,19.2.2.2.3.4.2.6-.4.4-5.1-.6-27.4-5.4-25.5-5.5-30.9-6.6-34.4-6.7h-3.1c0,0-2.4,2.9-2.4,2.9-3,3.6-4.8,7.2-4.6,8.9.2,1.7,2.6,3.5,24.9,18.4,28.3,18.9,52.6,34.3,56.6,35.9.9.4,1.8,1.1,1.9,1.6.2.5.5.9.8.9,2.4,0,8-7.3,8-10.3s-3.6-5.6-22.1-17.9c-22.6-15.1-27.8-18.8-26.9-19,.9-.2,11.6,2,37.2,7.4,11,2.4,21.4,4.4,23.2,4.5l3.2.3,1.4-1.7c2-2.4,5.1-8.7,5.2-10.5,0-1.4-.2-1.7-3.3-4.1-3.7-2.8-41.7-27.3-57.8-37.3-14.3-8.9-21.6-13.1-22.7-13.1s-1.3,1-2.3,2.1M282.3,229.8c-.3.9.1,1.6,1,1.6s.8-1.1,0-1.8c-.5-.4-.7-.4-.9.1M828.4,249.1c0,.9.9,1.7,1.9,1.7,1.5,0,.8-2-.7-2.2-.8,0-1.2,0-1.2.5M339.7,255.7c-1.9.6-4,1.8-5,2.9-2.4,2.5-3.2,7.5-3.2,20.5-.1,17.7-.5,16.8,27.6,74.1,7,14.4,13.4,27.5,14.1,29.1l1.2,3-1.4,2c-.7,1.1-5.4,7.3-10.5,13.9-5,6.6-10.1,13.5-11.4,15.3-1.2,1.9-3.3,4.5-4.6,5.9-3.5,3.8-8.6,10.1-25.3,31.5-18.3,23.5-22.5,29.2-21.8,29.9.3.3.5.9.5,1.5,0,.9-.2,1-1.6,1s-2,.4-4.5,3c-6.1,6.2-24.7,29.8-25.2,32-.5,2,3.5,12.5,8.9,23.7,3.3,6.8,4.7,8.6,6.4,8.2,1.8-.5,6.4-3.5,18.6-12.4,6.6-4.8,16.2-11.6,21.3-15.2s12.2-8.7,15.8-11.4c17.2-13.1,44.1-32.5,60.7-43.8,8.1-5.5,10.8-7.1,11.9-7.1,1.8,0,8.2,11.8,17.5,32.2,2.8,6.2,5.9,12.6,6.7,14.3l1.5,3.1.3-1.7c.3-1.8,1.9-3.2,3.1-2.7.4.2.7.4.7.6,0,.7-2.1,3.4-3,3.8-1,.4-1,.5.6,3.5,4.5,9,10.9,18.3,17.5,25.5,1.9,2.1,4.3,4.9,5.3,6.2,1.6,2.1,1.7,2.5,1.2,3.4-1,2-8,12-17.8,25.6-15.2,21.1-16,22.3-15.4,23.7,1,2.5,7.2,14.4,8.1,15.3,1.7,1.8,3.2,1,34.3-18.2,9.3-5.8,17.2-10.5,17.4-10.5s1.1,1,2,2.1c1.7,2.3,10.3,10.8,12.9,12.8,2.1,1.6,4.1,2,4.9,1,1.2-1.5.8-9.1-.8-15.1-.8-2.9-1.4-5.9-1.4-6.6,0-2.5,1.7-3.5,10.3-6.2,10-3.2,27.6-9,35-11.7,6.5-2.4,8.7-3.5,8.7-4.7s-5.1-11.2-7.3-14.5c-2.3-3.5-3.5-3.8-13.1-4.2-10.5-.4-43-3-45.5-3.7-1.1-.3-2-3.3-2.8-10.3-1.7-13.8-2.7-16.5-18.2-51.5-10.6-24-13.7-31.3-13.7-32.4s.4-1.1.8-1.5c2-1.8,13.6-4.3,43.5-9.3,19.8-3.3,24.9-4.1,75.1-12.2,32.8-5.3,41.2-6.8,43.7-7.9,1.5-.6,1.6-.8,1.3-2.1-.6-3.4-12.4-25.6-14.5-27.4-.6-.5-3.1-.9-8.9-1.5-38.2-3.6-54.3-5.2-79.7-7.7-18.8-1.9-30.7-2.9-33.3-2.8h-4c0,.1-.1,1.6-.1,1.6-.2,2-1.4,1.8-2.6-.6-1.2-2.4-1.3-2.4-23.6-4.9-19.5-2.2-31.4-3.9-35-5l-2.2-.7-3-6c-1.7-3.3-8.2-16.4-14.5-29.1-17.9-36.3-20.7-41.4-27.2-49.2-6.6-8-17.8-16.5-21.6-16.5s-4.1-1.3-2.5-1.3c.4,0,.8-.2.8-.4,0-.4-1-.9-4-1.8-2-.7-8.5-1-9.9-.5M45.3,269c-.1.4,0,.8.2.9.5.3,1.8-.6,1.8-1.2s-1.7-.4-2,.3M362.8,274.5c-.1.4,0,1,.5,1.4.7.7.8.7,1.4,0s.6-.8,0-1.5-1.5-.9-1.9,0M653.6,283.9c-.4,1,.1,2.1,1,2.1s.7-.3.6-1.2c-.2-1.4-1.1-1.9-1.5-.9M364.3,287c-.1.4,0,.8.2.9.5.3,1.8-.6,1.8-1.2s-1.7-.4-2,.3M144.5,291c-.4.4-.4.7,0,1.1.6.7,2.2,0,2.2-1s-1.4-.9-2.1-.1M343,291.5c-1.2,1.5-2.2,5.5-1.5,6.2.8.8,1.7,0,2.7-2,1.9-3.9,1-7-1.2-4.2M339.3,293.8c0,.6.2,1,.5.9.2-.2.5-.7.5-1.1s-.2-.9-.5-.9-.5.5-.5,1.1M356.9,312.1c-.8.8-.7,1.3.3,1.3s1.9-.8,1.9-1.4-1.5-.4-2.2.2M873.9,325.9c-.7,1.4-.6,2.3.4,2.3s2-1.1,1.8-2.1c-.2-1.1-1.6-1.3-2.1-.2M399.6,330.7c-.2.6-.4,1.8-.4,2.5q0,1.4.9.5c1-.9,2.2-3,2.2-3.8s-.5-.5-1.1-.5-1.3.3-1.6,1.1M864.3,344.2c-.3.8.7,1.3,1.7,1,.4-.1.7-.6.7-1,0-.9-2.1-.9-2.4,0M389.2,346.9c0,.7.2,1,.5.9.2-.1.5-.7.5-1.1s-.2-.9-.5-.9-.5.5-.5,1.1M872.3,362.9c-.5.8.7,2,1.3,1.4.3-.3.3-.7-.2-1.2s-.8-.6-1-.2M380.5,368.8c-.2.5-.2,1,0,1.2.4.4,1.6-.8,1.6-1.5s-1.3-.7-1.6.3M191.9,373.7c-.4.7.7,1.8,1.9,1.8s1.4-1.1.2-1.8c-1.1-.6-1.7-.6-2.1,0M401.6,381.7c-.3.6,1,2,1.7,1.7.3,0,.5-.6.5-1,0-.9-1.7-1.5-2.2-.7M708.3,391.2c0,1,.7,1.6,1.3,1.1.3-.2.3-.6,0-1.1-.6-1.1-1.3-1.1-1.3,0M704.2,393.3c0,1.2.9,2.5,1.8,2.5s1.2-1.7.3-2.6c-.8-.8-2.2-.7-2.2.2M188.1,400.2c-.7,1.3-.6,2.3.2,2.3s1.4-2.1.8-2.8c-.3-.3-.6-.2-1,.5M374.4,400.2c0,.9.8,1.7,1.2,1.2.4-.4-.3-2.1-.8-2.1s-.4.4-.4.9M183,401.1c-1,1.1-.9,2.3,0,2.3s2.1-1.9,1.7-2.7c-.4-.7-.9-.6-1.8.3M708.3,403.1c-.3.4-.5,1.1-.4,1.7.1,1,.2,1,.9.2.8-.8,1.1-2.5.4-2.5s-.6.3-.9.6M560.5,409.6c-.7.8-1,1.9-.5,1.9.8,0,2-1.1,2-1.8,0-1.1-.5-1.1-1.5,0M884.7,409.8c-1.5.8-1.5,1.9,0,2,1.2.1,3.8-1.5,3.3-2.2-.4-.6-2-.5-3.3.2M453.3,423c-.1.4-.1.9,0,1,.4.4,1.9-.5,1.8-1.1-.2-.7-1.5-.7-1.8,0M709.3,423.4c-.4.9.1,2,.9,2s1.3-.8.7-1.8c-.6-1.1-1.3-1.2-1.6-.2M465.3,429.7c0,1.4.6,1.8,1.4.9.4-.5.4-.8,0-1.4-.8-1-1.4-.8-1.4.4M398.6,436.6c-1.1,1.3-1.3,1.8-1,2.5.7,1.7,2.4.1,2.4-2.2s-.5-1.5-1.4-.4M400.9,440.1c-.4.5-.5.9-.1,1.2.7.7,2.5,0,2.3-.9-.2-1-1.4-1.2-2.2-.3M11.5,444.2c-.4,1-.3,3,.1,3.7.9,1.5,2.2-1.3,1.4-3.3-.5-1.3-1.1-1.5-1.5-.4M431,450.9c-.7.7-.3,2,.5,1.9.4,0,.8-.5.8-1,0-.9-.7-1.4-1.3-.9M341.4,459.1c-1.1,1.2-1.5,3.3-.6,3.3s1.5-.8,1.9-2.3c.4-1.5-.3-2-1.3-.9M882.7,463.7c-.2.3-.1.7.1,1,.6.6,2.1.3,2.1-.5s-1.8-1.1-2.3-.4M181.8,465.5c.3.5.7.9.9.9s.4-.4.4-.9-.3-.9-.9-.9-.8.1-.4.9M878.4,465.2c0,.7,1.2,2.1,1.8,2.1s.5-1.5-.1-2.2c-.7-.7-1.7-.7-1.7.1M711.4,477.2c-.4.7-.4,1.1,0,1.4.7.7,2.1-.7,1.7-1.7-.4-1-1.1-.9-1.7.2M338.9,482.3c-.4.4-.4.7,0,.9.6.4,1.4-.1,1.4-.9s-.6-.8-1.3,0M461.4,496.2c-.4,1,0,2.1.9,2.1s1.3-1,.3-1.9c-.8-.9-1-.9-1.2-.2M878.4,522.3c0,.8.9,1.7,1.9,1.7s1-1.2,0-1.8c-1.2-.6-1.8-.6-1.8.1M879.7,526.3c-.4.7-.3,1.2.2,2,.4.6.8,1.1.9,1.1s.2-.9.2-2c0-2.2-.6-2.6-1.4-1.1M302.4,528.2c0,.8,1.4,1.3,2.4.9,1.2-.5.6-1.3-1-1.4-1,0-1.4,0-1.4.5M25.3,532.2c.6.3,1,.3,1.3,0,.4-.4.1-.5-.8-.5-1.2,0-1.2,0-.5.5M279,542.7c-.5.6-.5.8.2,1.4.7.7.8.7,1.5,0,.8-.8.5-2.2-.4-2.2s-.9.3-1.2.7M14,543.1c-.7.8-.2,1.7.7,1.3.7-.3.9-2,.3-2s-.6.3-.9.7M194,543.9c-.7.7-.7,2.4,0,3,.8.7,1.2.2,1.2-1.6s-.5-2.2-1.3-1.4M861.3,564.5c0,.6.3.9.9.9s.9-.3.9-.9-.3-.9-.9-.9-.9.3-.9.9M210.7,564.9c-1.5,1-1.9,2.1-.8,2.5,1.1.4,4.1-1.3,4.1-2.3s-1.5-1.3-3.3-.2M480.4,565.3c-1.3.7-1.3.8-.3.9,1.4.2,2.3-.2,2.3-1s-.3-.8-2,0M670.2,578.9c-.2.3,0,.8.3,1.1.8.8,2,.1,1.6-.9-.3-.8-1.5-1-1.9-.2M36,590.2c-1.9,3.9-2.1,4.7-1.3,5.2,1.1.7,4.4-5,4.4-7.5s-1.2-1.5-3.1,2.3M652.2,605.9c-.2.3,0,.8.3,1.1.8.8,2,.1,1.6-.9-.3-.8-1.5-1-1.9-.2M36.8,618.3c-.5.6-.5.8.2,1.3,1.8,1.3,4.7.2,3.4-1.4-.7-.9-2.9-.9-3.6,0M252.7,620.7c-.3.5.5,1.8,1.2,1.8s.2-1.9-.4-2.1c-.3,0-.7,0-.8.3M246.5,627.7c-.3.6-.4,1.3-.2,1.5.4.4,2.1-1.7,1.8-2.2s-1.1-.4-1.6.7M59.5,635c-.4,1.1.8,3.1,2,3.3,1.5.2,2.9-1.1,2.3-2.2-.2-.5-.9-.9-1.5-1.1-.6-.2-1.2-.3-1.8-.5-.5-.1-.9,0-1.1.6M64.3,642.3c0,1,1,1.5,2,1.1.8-.3.8-.7.1-1.4-.8-.8-2.2-.7-2.2.3M71.7,655.9c-.4.6,1.1,1.9,1.8,1.6.3,0,.5-.5.5-1,0-1-1.8-1.5-2.3-.6M625.7,673.6c-6.6,3.5-14.2,9.9-14.2,11.9s5.5,14.5,19.8,43.6c12.5,25.6,21.9,44.1,23.5,46.3,1.2,1.6,1.5,1.8,2.6,1.5,2.1-.5,7-3.2,9-4.9,2.5-2.2,2.5-3.7,0-8.8-1.2-2.6-2.5-5.2-3.7-7.8l-1.8-4,2.4-2.2c3.5-3.2,11.7-9.3,12.9-9.6,1.2-.3,2,.3,8.7,6.3,5.3,4.8,6.1,5.3,7.8,5.3s3.2-.9,7.2-4c4.3-3.4,4.7-4.1,3.5-6.1-.5-.8-6.5-6.6-13.4-12.9-14.8-13.5-20.6-18.9-34.7-32.1-5.5-5.1-11-10.3-16.4-15.4-5.7-5.4-9.3-8.2-10.4-8.2s-1.5.5-2.7,1.2M791.3,696.8c-.4.6.6,1.8,1.4,1.8s1.2-.9.6-1.6c-.6-.8-1.6-.9-2-.2M527.6,697.9c-.2.4-.2.8,0,1,.4.4,1.7-.3,1.6-.8-.3-.8-1.2-.9-1.5,0M634.9,700.3c0,1,6.8,14.8,13.8,28.3,3,5.7,4.5,8.2,5.1,8.2,1,0,8.4-4.9,10.6-6.9,1.5-1.4,1.6-1.7,1.1-2.5-1.2-2.2-28.3-27.5-29.7-27.8-.6,0-.9.1-.9.8M391.8,703.6c-.4.5-1.4.8-2.2.8-1.3,0-1.4,0-.8.7.4.3,1.2.8,1.8.9,1.5.4,3-1.2,2.4-2.4-.4-.8-.4-.8-1.2,0M508.5,705.1c-.7.9-.2,2,.9,2s2-1.5,1.6-2.2c-.4-.7-1.8-.5-2.5.2M107.3,718c-.2.3-.1.7.2,1,.6.6,2,0,1.8-.7-.2-.8-1.5-1-1.9-.3M547.4,719.5c-3.4.8-12,4.1-18.5,7.2-5.2,2.5-6.4,3.7-6.4,6s4.2,12.5,9.7,26.4c5.8,14.7,11.5,29.5,17,44.3,5.4,14.5,7.8,20,9.3,21.3,1.2,1.1,3.6.8,10.4-1.5,12-4,19-7.8,24.8-13.5,6.3-6.2,8.4-11.8,8-21.2-.4-8.2-2.9-16.8-10.5-35-8.3-20-13.5-27.3-22.9-31.8-5.7-2.7-14.2-3.7-20.7-2.3M355.7,730.5c-2.4,1.5-2.8,3.1-7.4,28.7-1,5.7-2.2,12.3-2.7,14.6-.5,2.3-1.5,7.5-2.2,11.4-1.2,6.5-2.5,13-3.8,19.6-3.9,20-4.5,23.8-4,25.1.7,1.5,3.4,2.8,9.2,4.3,11.5,3,24.2,4,30.8,2.5,8.5-2,14.2-7.8,17.8-18.1,4.1-11.8,3.3-20.1-2.6-28-1.4-1.8-2.5-3.6-2.5-3.9s1.5-1.7,3.3-3.1c6.8-5.2,9.8-12,9.8-23.1s-1.6-13.6-6.4-18.2c-4.5-4.3-11.2-7-26.6-10.7-7.8-1.9-10.9-2.1-12.6-1M546.8,735c-2.1.5-3.9,1.9-4,3.2,0,.6.8,3.6,1.9,6.7,4.2,11.8,20.8,54.1,23,58.5,1.7,3.5,1.9,3.5,7.4.9,4.4-2.1,6.6-4.2,8.2-7.6,2.9-6.2.6-17.4-7.4-36.9-6.6-15.9-10.3-21.9-15.2-24.2-2-.9-2.9-1-7.2-1-2.7,0-5.6.2-6.5.4M458.8,740c-8.2,1.2-16.5,8.6-19.6,17.4-2.3,6.5-2.6,11.2-1.8,27.6,1.2,25,3.3,38,7.4,45.6,4.2,8.1,14.6,14.1,24.3,14.2,11.8,0,22.8-7.3,26.1-17.2,2.5-7.5,1-44.6-2.4-62-2.9-14.4-10.7-24-21.1-25.6-3.4-.5-9-.5-12.8,0M116.6,741.1c-.8,1-.2,2,1.3,2s2.6-1,2.2-2c-.3-.9-2.7-.9-3.4,0M365.7,756.7c-.9,5.3-1.9,11.4-2.2,13.6-.7,5.2-.4,5.5,5.4,6.2,9.5,1.2,14.3-2.6,15.4-12.2.4-3.8,0-9.2-.9-10.8-1.6-2.9-6.9-5.3-13.6-6.2l-2.5-.3-1.7,9.6h0ZM752.7,751.5c-.7.7-.3,2,.5,1.9.4,0,.8-.5.8-1,0-.9-.7-1.4-1.3-.9M756.2,753.9c-.4.7.1,1.4,1.2,1.4s.8-.2.8-.8c-.2-.9-1.5-1.3-1.9-.6M462.1,754.8c-3.5,1-5.6,3.2-6.8,6.6-.8,2.4-.8,22.7,0,33.3,2.2,29.1,4.5,34.9,13.6,34.9s7.9-2,9.2-5.7c1.7-4.8,1.6-15.1-.2-37.5-1.4-18-2.1-21.9-4.5-26.3-2.2-4-7.4-6.5-11.4-5.3M149.4,759.2c0,.9.8,1.9,1.5,1.9s.3-.5.2-1.2c-.2-1.4-1.7-2.1-1.7-.7M543.1,763.6c-.3.6-.4,1.3-.2,1.5.5.5,1.8-.6,2-1.6.2-1.4-1.2-1.2-1.8.2M733.3,766.1c-.4.7.2,2.2,1,2.2s1.3-1.2.6-2c-.7-.8-1.2-.8-1.6-.2M169.4,777.1c-2,.7-3.5,2.2-3.3,3.3.1.8,3.8,2,4.7,1.7.3-.1.6-.6.6-1s.6-1.3,1.4-2c2.7-2.2.6-3.4-3.4-2M161.3,781.9c-.2.3,0,.8.3,1.1.8.8,2,.1,1.6-.9-.3-.8-1.4-1-1.9-.2M170.6,784c-.7,1.3-.6,2.9.1,3.9.6.8.6.8,1.1-.1.7-1.3.6-2.9-.1-3.9-.6-.8-.6-.8-1.1.1M173.4,787.9c-.3.8.1,1.6.9,1.6s1.2-1.1.6-1.8-1.2-.6-1.5.2M173.9,791.3c-.2.5-.2,1.1,0,1.2.4.4,1.8-1.1,1.4-1.7-.5-.8-1.1-.6-1.4.4M359.8,792.2c-.7,1.7-3.3,13.5-4.8,21.9-1.1,6.3-1.2,5.9,2.5,7.1,2.9.9,7.6,1.3,10.2.9,4.2-.6,8-4.6,9.6-9.8,1.2-4,1.1-12.1,0-14.5-1.6-3.3-7.6-6.2-14-6.8l-2.8-.3-.6,1.5h0ZM716,795.4c-1.6.5-1.9,1-.8,1.5,1.8.7,3.8,0,3.8-1.4s-.9-.7-3,0M699.4,801c-.2.4-.2.8,0,1,.5.5,1.7-.2,1.7-1s-1.3-.9-1.7,0M296.8,845.7c-.4.6,1.9,2.8,2.6,2.6.8-.3,1-1.6.3-2.4-.6-.8-2.5-.9-2.9-.2M314.8,859.3c-.4.7,1,2.7,2,2.7s1.2-1.4,0-2.4c-.9-.8-1.7-1-2.1-.3M559.7,860c-.2.2-.3,1.7-.3,3.4,0,4.5,1.3,5.4,3.8,2.7,1.1-1.2,1.5-4.6.7-5.3-.8-.7-3.7-1.2-4.1-.8M519.4,863.6c-.9.4-.6,1.9.5,2.7,1.2.8,2.5.7,2.8-.1.1-.3,0-.5-.5-.3-.4.2-.8-.2-1.1-1.1-.5-1.4-.7-1.5-1.8-1.1M453.6,868.9c-.7.9-.2,1.6,1.1,1.6s2-1.2,1-1.8c-.9-.6-1.6-.5-2.2.2M556.9,871.7c-2.1,1.4-1.7,2.4.7,1.7,1.2-.3,1.5-.7,1.6-1.7.2-1.5-.2-1.5-2.3,0M450.3,872c-.3.9.9,1.9,1.6,1.3.6-.6.2-1.9-.7-1.9s-.8.3-.9.7M395.1,878.3c0,.7,1.4,2.1,2.2,2.1s.6-1.2-.5-2c-1.2-.9-1.7-.9-1.7,0M448.2,878c0,.2.2.7.4,1,.5.8,2,.3,1.7-.5-.2-.6-2.1-1.1-2.1-.5M371.4,879.3c-.1.4-.1,1,0,1.5.3.7.4.7,1.2-.3.5-.6.8-1.2.6-1.5-.4-.6-1.5-.5-1.8.3M454.1,879.4c-.7,1.4-.6,2.2.5,2.8,1.2.7,1.8-.1,1.6-2-.1-1.6-1.4-2-2.1-.7M484.3,881.8c-.7.7-.7,1.7,0,1.7s1-1.1.8-1.8c-.1-.3-.4-.3-.7,0M444,883.8c-.7.7-.3,2,.8,2.7,1.1.7,1.2.7,2,0,1.4-1.3,1-2.6-1-2.8-.9,0-1.7,0-1.9.2"/>
  </g>
</svg>