<?xml version="1.0" encoding="UTF-8"?><svg id="Layer_1" xmlns="http://www.w3.org/2000/svg" viewBox="0 0 400 400"><defs><style>.cls-1{fill:#fff;}.cls-2{fill:#2c3e4f;}</style></defs><rect class="cls-1" x="0" y="0" width="400" height="400" rx="200" ry="200"/><path class="cls-2" d="M226.06,188.24c-1.11-2.71-2.36-5.32-3.72-7.83-.05-.08-.09-.17-.14-.25-2.49-4.54-5.37-8.75-8.61-12.61-.16-.24-.35-.45-.55-.64-21.36-24.93-57.11-34.68-89.13-21.61-19.38,7.91-34.52,22.89-42.62,42.18-8.11,19.29-8.22,40.59-.31,59.97,7.91,19.38,22.89,34.52,42.18,42.63,9.78,4.11,20.06,6.17,30.36,6.17,9.04,0,18.07-1.6,26.77-4.77.43-.06.87-.17,1.27-.39.11-.06.21-.14.31-.21.42-.16.85-.31,1.27-.48,40-16.32,59.26-62.15,42.94-102.15ZM181.47,283.03c-7.73-15.91-9.24-33.88-4.21-50.96,6.03-20.5,20.55-36.78,40.07-45.14.65,1.35,1.29,2.71,1.87,4.11,14.62,35.83-2.3,76.8-37.73,91.99ZM167.16,287.48c-8.49-18.74-9.99-39.79-4.16-59.61,7.03-23.88,23.87-43.27,46.39-53.66,1.54,1.97,3,4.03,4.34,6.18-21.22,9.32-36.99,27.17-43.59,49.58-5.49,18.64-3.92,38.22,4.35,55.63-2.42.75-4.87,1.39-7.33,1.87ZM126.02,283.25c-17.47-7.34-31.03-21.05-38.19-38.59-7.16-17.54-7.06-36.83.28-54.3,7.34-17.47,21.05-31.03,38.59-38.19,8.75-3.57,17.8-5.26,26.71-5.26,19.11,0,37.56,7.79,50.92,21.47-23.5,11.49-41.02,32.16-48.45,57.4-6.13,20.84-4.81,42.93,3.64,62.78-11.31.98-22.75-.79-33.51-5.31ZM288.31,169.4l35.7-24.79c.9-.62,1.47-1.6,1.58-2.69.75-7.82-2.63-16.15-9.07-22.27-5.03-4.79-11.94-8.38-20.52-10.68-6.96-1.87-13.08-2.41-18.71-1.65-8.93,1.19-16.85,5.72-23.84,9.71-1.42.81-2.14,2.46-1.77,4.05l9.01,39.09c-11.11-1.86-22.48-1.68-33.51.52-9.71-12.55-22.51-22.47-37.54-28.78-17.34-7.29-36.05-9.14-54.11-5.55l12.42-41.62c.31-1.04.15-2.17-.45-3.08-4.29-6.58-12.13-10.97-20.98-11.75-6.92-.6-14.56.89-22.7,4.46-6.61,2.89-11.73,6.28-15.65,10.38-6.23,6.5-9.6,14.98-12.58,22.47-.6,1.52-.14,3.25,1.14,4.27l31.43,24.93c-18.19,10.08-32.4,25.84-40.59,45.31-9.65,22.95-9.78,48.29-.37,71.34,9.41,23.05,27.23,41.06,50.18,50.71,11.63,4.89,23.87,7.33,36.11,7.33,6.09,0,12.19-.61,18.21-1.82,12.03,15.52,28.32,26.65,47.28,32.23,8.75,2.58,17.59,3.81,26.28,3.81,40.28,0,77.52-26.35,89.46-66.9,12.79-43.44-7.67-88.89-46.42-109.02ZM296.41,132c-.12.19-.2.41-.2.64-.08.11-.15.22-.24.33-6.08-1.59-12.11-3.39-18.08-5.35l14.53-11.42c1.78,5.14,3.11,10.43,3.98,15.8ZM275.16,126.71c-4.84-1.65-9.64-3.42-14.39-5.3,4.15-2.3,8.4-4.44,12.83-5.73l1.56,11.04ZM294.44,135.11c-6.67,9.15-12.53,18.91-17.39,29.14-.03.07-.03.14-.05.2-.91-.33-1.84-.63-2.76-.94,0-.04.03-.08.03-.12l3.25-33.3c5.59,1.83,11.23,3.51,16.92,5.01ZM279.28,165.31s0,0,0,0c4.93-10.38,10.91-20.27,17.73-29.52,6.72,1.72,13.49,3.19,20.31,4.45l-36.8,25.55c-.41-.17-.83-.31-1.24-.47ZM318.16,137.88c-6.26-1.14-12.48-2.49-18.66-4.03,3.83-3,7.48-6.26,10.89-9.72.34.29.69.58,1.01.89,3.85,3.66,6.24,8.29,6.75,12.85ZM308.42,122.57c-2.86,2.88-5.86,5.63-9.02,8.19-.12-.12-.21-.25-.37-.32-.12-.05-.24-.01-.37-.02-.82-4.74-2.01-9.42-3.54-13.98,5.28,1.51,9.73,3.57,13.29,6.13ZM278.27,114.66c3.49-.46,7.28-.3,11.49.48l-12.37,9.72-1.39-9.8c.75-.16,1.5-.3,2.26-.4ZM259.88,123.71c5.03,2,10.11,3.86,15.24,5.59l-3.27,33.45c-.08-.02-.15-.05-.22-.07-.98-.29-1.97-.51-2.95-.77l-8.8-38.2ZM239.82,182.63c-.17-.41-.36-.81-.53-1.21,8.75-.76,17.49.11,26.06,2.63,18.18,5.35,33.18,17.46,42.25,34.1,9.07,16.64,11.12,35.81,5.77,53.99s-17.46,33.18-34.1,42.25c-16.64,9.07-35.81,11.12-53.99,5.77-11.79-3.47-22.35-9.86-30.82-18.58,20.3-9.89,36.16-26.59,44.99-47.6,9.65-22.95,9.78-48.29.37-71.34ZM125.91,128.83s0,0,0,0c-2.62-11.19-4.12-22.65-4.57-34.13,6.32-2.85,12.54-5.92,18.65-9.2l-12.81,42.92c-.42.13-.84.27-1.26.4ZM120.85,130.57s-.02-.08-.04-.11l-18.24-28.05c5.51-2.06,10.97-4.26,16.35-6.63.5,11.31,2.01,22.6,4.59,33.62.02.07.05.13.08.19-.92.31-1.83.65-2.74.99ZM120.08,89.28c-.16-.02-.32-.06-.49-.02-.12.04-.2.14-.3.21-3.6-3.19-7.45-6.1-11.49-8.72,5.07-2.11,9.83-3.29,14.21-3.5-.44,4.03-1.06,8.06-1.94,12.03ZM118.54,92.14c.03.21.07.42.22.6,0,.13.02.27.02.4-5.74,2.55-11.57,4.91-17.46,7.1l4.23-17.99c4.61,2.91,8.97,6.23,13,9.89ZM139.17,83.13c-5.6,3.01-11.31,5.84-17.09,8.5,1.12-4.73,1.94-9.55,2.45-14.39.45.02.9.02,1.35.06,5.3.46,10.04,2.59,13.3,5.83ZM102.8,83.09l-3.6,15.31-7.2-6.79c.48-.59.99-1.17,1.51-1.72,2.43-2.54,5.49-4.78,9.28-6.8ZM90.5,93.58l8.1,7.65c-4.81,1.74-9.66,3.34-14.55,4.83,1.8-4.39,3.79-8.71,6.45-12.48ZM84.79,108.42c5.18-1.58,10.31-3.29,15.4-5.14l18.32,28.18c-.07.03-.15.05-.22.08-.95.39-1.87.81-2.8,1.22l-30.7-24.35ZM120.26,296.95c-21.13-8.88-37.53-25.46-46.19-46.68-17.88-43.8,3.22-93.99,47.02-111.86,10.47-4.27,21.45-6.41,32.43-6.41s22.54,2.25,33.24,6.75c14.46,6.08,26.71,15.77,35.78,28.08.05.08.11.15.17.23,4.1,5.61,7.55,11.76,10.25,18.37,8.66,21.22,8.54,44.54-.34,65.67-8.88,21.13-25.46,37.54-46.68,46.2-21.22,8.66-44.54,8.54-65.67-.34ZM327.62,276.33c-13.36,45.39-61.15,71.44-106.54,58.08-16.37-4.82-30.56-14.16-41.4-27.09,2.56-.75,5.1-1.64,7.62-2.62,9.66,10.67,21.99,18.47,35.89,22.56,7.36,2.17,14.78,3.2,22.09,3.2,33.86,0,65.16-22.15,75.2-56.23,5.91-20.08,3.65-41.25-6.37-59.63-10.02-18.38-26.59-31.75-46.67-37.66-10.34-3.05-20.92-3.91-31.49-2.62-1.26-2.4-2.63-4.72-4.08-6.98,12.51-1.98,25.43-1.16,37.68,2.45,45.39,13.36,71.44,61.16,58.08,106.54ZM196.94,78.97l-1.08-21.25c-.1-2.05,1.47-3.79,3.51-3.89,2.02-.05,3.78,1.47,3.89,3.51l1.07,21.25c.1,2.05-1.47,3.79-3.51,3.89-.06,0-.13,0-.19,0-1.96,0-3.6-1.54-3.7-3.52ZM221.39,76.65l8.03-11c1.21-1.65,3.52-2.02,5.18-.81,1.65,1.21,2.02,3.53.81,5.18l-8.03,11c-.73.99-1.85,1.52-3,1.52-.76,0-1.52-.23-2.18-.71-1.65-1.21-2.02-3.53-.81-5.18ZM167.64,77.15c-1.1-1.72-.6-4.02,1.13-5.12,1.72-1.1,4.02-.6,5.12,1.13l6.56,10.27c1.1,1.72.6,4.02-1.13,5.12-.62.39-1.31.58-1.99.58-1.22,0-2.42-.6-3.13-1.71l-6.56-10.27ZM241.02,91.15c-1.1-1.73-.58-4.02,1.15-5.11l5.84-3.7c1.73-1.09,4.02-.58,5.11,1.15,1.09,1.73.58,4.02-1.15,5.11l-5.83,3.69c-.62.39-1.3.58-1.98.58-1.23,0-2.43-.61-3.13-1.72Z"/></svg>