<?xml version="1.0" encoding="UTF-8"?>
<svg id="Layer_2" xmlns="http://www.w3.org/2000/svg" xmlns:xlink="http://www.w3.org/1999/xlink" version="1.1" viewBox="0 0 976.9 341.9">
  <!-- Generator: Adobe Illustrator 30.0.0, SVG Export Plug-In . SVG Version: 2.1.1 Build 123)  -->
  <defs>
    <style>
      .st0 {
        fill: none;
      }

      .st1 {
        clip-path: url(#clippath-1);
      }

      .st2 {
        clip-path: url(#clippath-3);
      }

      .st3 {
        clip-path: url(#clippath-2);
      }

      .st4 {
        fill: #a94442;
        fill-rule: evenodd;
      }

      .st5 {
        clip-path: url(#clippath);
      }
    </style>
    <clipPath id="clippath">
      <rect class="st0" x="971" y="261.2" width="5.8" height="10"/>
    </clipPath>
    <clipPath id="clippath-1">
      <rect class="st0" x="190.5" y="317.9" width="266.7" height="24"/>
    </clipPath>
    <clipPath id="clippath-2">
      <rect class="st0" x="613.2" width="281.3" height="36.6"/>
    </clipPath>
    <clipPath id="clippath-3">
      <rect class="st0" y="68.6" width="165.2" height="34.7"/>
    </clipPath>
  </defs>
  <g id="Layer_1-2">
    <g class="st5">
      <path class="st4" d="M973.8,270.8l-2.1-.8,3.1-8.8,2.2.8-3.1,8.9"/>
    </g>
    <path class="st4" d="M109.8,197c-.5,0-.9-.2-1-.6,0-.3.3-.7.8-.7.5,0,.9.2,1,.6,0,.4-.4.7-.9.7M86.7,191.3c.5,0,1,.2,1,.6,0,.4-.3.7-.8.7-.5,0-1-.2-1-.6,0-.4.3-.7.8-.8M80.4,193.2c-.9,0-2.3-.4-3.1-1l-1.3-1.2,5.8-.5.2,1.3c0,.7-.6,1.4-1.6,1.5M161.4,205.5l-2.6,1.5-2.6,1.5,4.6-.4.3,2.5-5.7-1-.5-3.6,3.2-.2,3.2-.3M182.2,210.1l1.3,2.5-1.8-.6c-1-.3-1.9-1.4-2-2.4-.1-1,.1-1.9.5-1.9.4,0,1.3,1.1,2,2.4M135.6,200.6c0-.3.4-.7.8-.7.5,0,.9.2,1,.6,0,.4-.3.7-.8.7-.5,0-1-.2-1-.6M257.4,224.2c.5,0,1,.2,1,.6,0,.3-.3.7-.8.7-.5,0-1-.2-1-.6,0-.4.3-.7.8-.7M332.4,224c.5,0,1,.2,1,.6,0,.4-.3.7-.8.7-.5,0-1-.2-1-.6,0-.4.3-.7.8-.7M428.4,212.7c.4,0,.4.9,0,2-.5,1.1-1.3,1.8-1.8,1.6-.5-.3-.5-1.2,0-2,.6-.8,1.4-1.5,1.8-1.6M421,213.4c.5,0,.9.2,1,.6,0,.4-.3.7-.8.7-.5,0-1-.2-1-.6,0-.3.3-.7.8-.7M48.3,244.5c.5,0,1,.2,1,.6,0,.4-.3.7-.9.8-.5,0-1-.2-1-.6,0-.4.3-.7.8-.8M89.5,251.9c0,.4-.3.7-.8.8-.5,0-.9-.2-1-.6,0-.3.3-.7.8-.8.5,0,.9.2,1,.6M22,244.2c.5,0,1,.2,1,.6,0,.4-.4.7-.8.7-.5,0-1-.2-1-.6,0-.4.4-.7.8-.7M17,241.4c0-.1-.1-.2-.2-.3v.6c.2-.1.2-.2.2-.3M204.9,213.3c-.3,0-.5-.1-.6-.3,0-.2.2-.4.5-.4.3,0,.5.1.5.4,0,.2-.2.4-.5.4M174,156.6c0,.3-1.2.6-2.7.8h-.3s-.2-1.8-.2-1.8h.3c1.6.3,2.9.8,2.9,1M171.6,98.7c.8.3,2,.8,3.1,1.5l.8.5c.9-.5,1.6-1.1,1.6-1.7v-1.1c-.1,0-3.7.5-3.7.5l-1.7.2M200.5,216.1c0,.2-.2.4-.5.4-.3,0-.5-.1-.6-.3,0-.2.2-.4.5-.4.3,0,.5.1.5.3M194.7,213.6c-.8.2-1.7.2-2,.1-.4-.1-.9-.5-.9-.9v-.7c0,0,1.8-.2,1.8-.2l-1.1-1.5,5.9-.5v1c.1.5-.5,1.9-1.4,3.1-.9,1.2-1.6,1.7-1.7,1.3,0-.3-.3-1-.8-1.7"/>
    <path class="st4" d="M213.5,157.1l-.4-.6c-9.2-1.3-18.4-2.7-27.6-4.2l-4.3.4-1.2-1.1-.3-.3-3.9-.7h-.5c0-.1-1,.6-1,.6l.7-.7c-28.7-5-57.3-10.9-86.1-17.3-26.9-5.9-52.7-8-77.4-7.1-1.9,0-3.8.2-5.7.3l.9,9.3c1.7,0,3.4-.2,5.2-.3,23.9-.9,48.9,1.1,75,6.9,28.4,6.3,56.5,12.1,84.3,17v-.2s1.2-1.4,1.2-1.4l2.2,1.4,1.8,1.1c3.5.6,6.9,1.1,10.4,1.7l2.4-.4h0s-.7-.7-.7-.7h1.1c0,0,1.1-.2,1.1-.2v.6c0,0,6.5-1,6.5-1,0,0,.2,0,.3,0l11.3-1c.5-.8,1.2-1.2,2-1,.2.2.4.5.6.8l3.2-.3-1-1.6M351.1,112.3c.5,0,1,.2,1,.6,0,.3-.4.7-.8.7-.5,0-1-.2-1-.6,0-.3.3-.7.8-.7M237.4,108.2c0-.2.2-.4.5-.4.3,0,.5.1.5.3,0,.2-.2.4-.5.4-.3,0-.5-.1-.6-.3M235.2,326.2l1.4.2,1.4.2-3.9.5.6-.5.6-.5M737.1,60.1c0-.4.2-.7.7-.8.5-.1,1,0,1.1.4,0,.3-.2.7-.8.8-.5,0-1,0-1.1-.4M704.8,117.3c.5-.1,1,0,1.1.4,0,.3-.2.7-.8.8-.5.1-1,0-1-.4s.2-.7.7-.8M774.5,58.7l-1,1.1-.9-3.4,1.4.6,1.5.6-1,1.1M847,65.6c.5,0,1,0,1.1.4,0,.3-.2.7-.8.8-.5.1-1,0-1-.4,0-.3.2-.7.7-.8M917.2,28.6l3.6-.8,1.3,5-3.6.8-1.3-5M470.9,209.2h0c0,0,.1,0,.1,0h-.1M545,63.5c-.5,0-1,0-1.1-.5,0-.4.3-.7.8-.8.5-.1,1,0,1.1.4,0,.4-.2.7-.8.8M489.4,257.5c0-.2.1-.4.4-.5.3,0,.5,0,.6.2,0,.2-.1.4-.4.5-.3,0-.5,0-.6-.2M507.9,198.9l-.4.8-3.9.9-.4-1.4,5.2-1.2-.5.9M12.4,71.2h0c0,0,0,0,0,0h0M6.5,72c.5-.1,1,0,1.1.4,0,.3-.3.7-.8.8-.5.1-1,0-1.1-.4,0-.3.3-.7.7-.8M48.4,76.9l-1,1.1-1.4-.6-1.4-.6,4.8-1.1-1,1.1M48.3,74.1c0,.3-.3.7-.7.8-.5.1-1,0-1.1-.4,0-.3.2-.7.8-.8.5,0,1,0,1.1.4M30,75.7c1.2-.6,2.3-1.2,2.5-1.3.2-.1.1.8-.2,2-.3,1.1-1.3,2.3-2.2,2.5-.9.2-1.8-.1-1.9-.8-.2-.6.6-1.7,1.8-2.3M1.6,79.1c0-.3.2-.7.8-.8.5-.1,1,0,1.1.4,0,.4-.2.7-.7.8-.5.1-1,0-1.1-.4M212.8,163c0-.1-.1-.2-.1-.4l1.8-.4c-.2.6-.3,1.3-.5,2.1h0c0,0,0,0,0,0h0c-.4-.2-.9-.7-1.2-1.4M213.6,164.4l-6.4.6c-6.3-.9-12.6-1.9-18.9-2.9l9.2.6,10.5.7c1,1.4,3.1,1.4,3.3.3.2-.2.3-.5.4-.8h-.4c0,0,2.3,1.6,2.3,1.6M216.6,161.4v.6l-.2-.6h.2M239.5,161.9c.4-1.7,2.3-2.5,2.9-1.1.3.2.6.5.9.9l7.4-.7c-6.4-.6-12.8-1.3-19.2-2.1-1.5,1.1-4,1-6-.8.2.4.5.9.8,1.3.9,1,1.3,2.4,1.3,3.7h.8c0-1.2.5-2.9,1.4-2.3.3-1.2,1.4-.6,1.8.4.4.5.6,1,.6,1.4l6.4-.6h1c0-.1,0-.2,0-.2M244.4,165.4l5.1-.6,11.3-1.1,1,.9h0c-1.3,2.9-4.8,2.7-4.7,6.3h-1.6c0-.1.1-2.6.1-2.6-1.9-2.9-4.6,0-5.7.5,1.1,1.6,2.6,1.5,4,1.8-2.1-.2-4.1-.4-6.2-.6v-.3c-.9-.6-1.5-.3-2.4-.9,0,.4,0,.7,0,.9-2.7-.3-5.4-.6-8.1-.9-.7-1.6-2.3-3.1-3.3-1.5-.5.2-.6.6-.5,1.1-2.6-.3-5.3-.6-7.9-1l.6-.2,15.7-1.6c.5.4,1.1.7,1.9.9.5-.2.8-.6.8-1.1M296.9,169.1c-1.2-1.4-.4-2.6.1-2.8,1.1-.4,1.5.3,1.8,1.1,1.6,2.2-.9,4.1-1.9,1.7M277.1,171.6l-.4-.8c0-1.8,2,.1,1.8,1.1-.6.2-1.1.4-1.4-.3M299.9,112.3c-1-2.4.4-3.8,1.8-3.5,1.8,1.2,1.5,2.2,1.3,3.2-1.1.5-2.5,1.9-3.1.3M289.9,111.7c-.3-.8,0-1.8.2-2.8,0,0,.9.6,1.2,1.3.3.8.7,3.4-1.4,1.5"/>
    <path class="st4" d="M294.9,115c2.9-1.2,6,3.9,7.4,1.7l-.7-4.5c-1.1-2.7-3.5-3.3-5.5-2.5-.9.4-2.3,2.5-1.2,5.2M742.7,118.2c-.5-1.3-1.1-2.7-.1-3.1,1.4-2.2,4,1.6,3.6,3.3-1.3,2.2-2.4-.6-3.4-.2M805.6,116.8c-1.2-1.4-.4-2.6.2-2.9,1.1-.4,1.5.3,1.8,1.1,1.5,2.2-1,4.1-1.9,1.7M801.6,116.5c.5-.2,1.1-.4,1.1-.4l.7,3.4c-.8-.6-1.2-1.4-1.8-2.9M785.8,119.3l-.3-.8c0-1.8,2,0,1.8,1.2-.6.2-1.2.4-1.4-.4M758.5,116.5c1.1-.4,3.8-3.4,5.7-.5v2.8c-1.9-1.2-4.2-.2-5.7-2.4M754.2,120.2c-1.2-1.4-.1-1.8-.2-3.7.8.6,1.4.3,2.3.9,0,1.8-.6,4.8-2.1,2.7M793.3,62.5c-.4-2.6,1.9-1.7,3-2.2.9.6,1.5,2.2,1.8,3-2-.1-5,6.7-4.8-.8M842.6,68.6c.7-.3,1.1.7,1.8.4l.8,2-2.1.8c.3-1.3-.8-2-.5-3.2M846.5,68.2c-1.4.6-.2,3.6,1.2,3,.7-.3,1-1.6.6-2.6-.7.3-1.1-.7-1.8-.4M829.5,64.8l.7-.3c.2,4.5-4.5,3-6.3,2.6-.1-2.3,3.8-2.7,5.6-2.3"/>
    <path class="st4" d="M832,64.6c0,0,.2,0,.3,0v.3c0,0,.8-.2.8-.2.5.2,1.1.6,1.7.9l-2.1.5v.4c-1.8-.6-3.8-2.6-4.2-4.9,0-.4,0-.8-.2-1.2h.6c-.2.9-.5,1.6-1,2.3-1.4,2.1-3.4-.2-5-1.1-.2-.6-.4-1.2-.3-1.8l-3.5-.4c-.7,1.1-1.1,2.4-2.2-.2-1.7-.2-3.4-.3-5.1-.5,0,.2,0,.4,0,.6,1.2-.3,2.5,0,3.5,2.3.4.9.4,2,0,2.9l-.3-.2v.6c-.2.5-.6.8-1.1,1.1l-.6.2.9,2.2,1.8.2-.5-2.1-.3-1.3c-1,0-1.4,1.7-1.8,3.1h.6c-1-.8-1.9-1.8-2.8-2.8-.2.2-.4.4-.7.5-.3,0-.7,0-.9-.2-.2.7-.2,1.4-.2,2.1l2.6.2c0-2.2.9-4.3-1.8-4.9-.1.6-.3,1.1-.4,1.6,0,0-.1,0-.2.1l.2-2.4c-.2.1-.3.3-.5.4.3.6.8,1.1,1.2,1.7.1,0,.2,0,.3,0h0c0,0-.4-2.7-.4-2.7.4-.4.7-.7.9-1,2.2.3,3.5,1.8,4.5,3.8l1.3.9c1.2.8,2.3,2,2.5,2.5l.2.7h.6c0-2.4,1.5-3.6,2.7-4.7-.5.2-1.5.2-2.4,0l-2.2-.4.8-1.6h0c-.5.3-1.2.9-2.2-.2.2-1-1.3-3.2.1-2.8.1,0,.3,0,.4,0h0c.9.1,1.8,1.4,2,2.3l.4-.8,1.9,1.3c1,.7,1.5,1.4,1.4,1.8.6-.5,1-1,1.2-1.6.9.6,1.2,1.3,1.5,2.1-2.6-.4-2.4,2.7-2.6,4.9,4,.5,8.1,1.1,12.2,1.7h-.2c-.6-.5-1.2-1.1-1.7-1.6,0,0,0,.2,0,.3-1.8-.4-4.1-4.1-2-4.9M766.8,228.5c.2-.9,0-1.7.5-1.9l1.6,1.1c0,1.7-1,2.1-2.1.8M749.7,232.7l1-2.1c1.3.3,2.4,1.6,1.7,2.8-.8,1.2-1.6.6-2.7-.7M736.6,231.9c-.3-.7,0-1.7.5-1.9.5-.2,2.2.9,1.4,2-.5.2-.8,1.2-1.9-.1M635.8,251.1c.2-.9,1.2-1.4,1.5-.6.8.5,1.7,2.8.7,3.2-1.4-.4-1.7-1.1-2.2-2.6M641.4,254.9c.6-.2,2.1-1.8,3.1-.2v1.5c-1-.6-2.3-.1-3.1-1.3M639,256.9c-.7-.8,0-1,0-2,.5.3.8.2,1.3.5,0,1-.4,2.7-1.2,1.5M684.5,236.7c-.4-.9.4-1.7,1.4-1.1.7.8.5,1.3,0,2-.3.1-1.1,0-1.4-.9M654.1,246.8c-.2-.4.1-.6,0-1l.3.9h-.3M670,245.3c-.3-.9,0-1.5.4-1.7.6-.2,1.4,0,1.8.8l.2,1.4c-.4.7-1.4-.9-2.3-.6M665.3,245.1c0-1-1.2-2.1-.3-2.4,1.1,0,2.5,1,2.6,3,.1,2-2.1.8-2.3-.6M680.6,238c.3-.1.6-.2.6-.2l.4,1.9c-.5-.3-.7-.7-1-1.6M671.9,239.5l-.2-.4c0-1,1.1,0,1,.6-.3.1-.6.2-.8-.2M651.5,252.3c.6.4,1,.2.8.9l-.8.3c-.2-.4-.2-.8,0-1.2M652.8,246.7c-.9,1,.9,3.4,2,3,.4-.2,1-1,.1-2-.2-.5-1.4-1.3-2.2-1"/>
    <path class="st4" d="M669.9,244.3c-.4.2-.9,1-.3,1.4l1.1-.5c.2-.7-.8-.9-.8-.9M701.2,231.9c.8-.3.9-1,1.8,0,0,1.2,0,3.2-.6,4-2.3-.4-1.1-2.7-1.1-4M704.6,238.1c-.2-.6.4-.2.6.4l-.8.3s-.2-.5.2-.7M710.2,234.5c.5-.9,1,.2,1.6.6l-.5.9c-.8.3-1.2-.8-1-1.5M713.9,229.3c.2-.7,1.1-.5,1.9.5.6.4.3,1.8-.1,1.9-1.7,0-1-1.5-1.8-2.4M722.2,180.5c-.5-.9-1.2-1.4-.7-2,.5-.6,1.3-.9,2-.4,1.3.5.2,2.6-1.3,2.4M715.6,179.2c.5-.6.7-1.8,1.6-1.1l1.2,2.8c-1.1-.3-3.2-.1-2.7-1.7M715.3,177c1.9,1,2-.8,1.2-1.5h-.7c-.9.3-.9,1.1-.5,1.5M706.8,178c-.2-.6-.4-1.2-.5-1.9.9-.3,2.6.1,2.1,1.6-.2.3-.7.9-1.5.2M698.5,182.5c-.4-.3-.2-.6-.4-1.2.3-.3,1.3,0,1.5.7-.2.3,0,.9-1.1.6M668.8,190.4c-.4-.3-.2-.6-.4-1.2.5-.6,2.2-.2,2.6,1-.5.6-1.5.2-2.2.2M662.3,190.9c-.4-.3-.6-.9-.6-.9,0-.9.9-.3,1.5-.2,1.5.7.3,2.1-.9,1.2M679,186.8c.3-.4-1.2-2.6.5-2.1,1.8.8-.2,1.8-.5,2.1M679.6,179.9c-.3-.2-.1-.3-.2-.7.3-.4,1.3-.1,1.5.6-.3.3-.9.1-1.3.1M673.9,184.7c-.3-.6-.6-1.8,0-2.2,1.8.3.3,1.6,1.7,2.4-.3.4-1,.3-1.8-.3M671.8,184.8c-.2-.2,0-.4-.3-.6.1-.2.5-.1.5-.1.5.4.5.9-.2.7"/>
    <path class="st4" d="M674.4,186.2c.2,1.3,1.8,1.2,2.2,1.7-1.5-.6-.7-1.6-.3-2.2-.2-.2-.5-.9-1-.8-.8,0-.9.7-1,1.2M679,183.3c-.1-.3-1-.8-.5-.9.3-.3,1.2,0,1.2.4-.1.2-.2.7-.8.5M675.9,184.2c.5.4.7-.3.9-.7-.1-.4-.2-.7-1-.8-.5.1-.7.9,0,1.4M671.5,187.8c1.3,2.4,1-.3,1.7-.6-.3-.2-.7-.6-1.1-.6-.3.3-1.2.5-.6,1.2M672.6,185.9c1,.2.4-.5.2-.7-.2-.2-.6-.2-.6-.2.1.4.2.8.5.9M672.8,184.6c2,0-.5-2.4.9-3.2-.4,0-.9-.4-.9.1-.3.4.2.7.5.9l-.5.2c-.5.2-.5,1.2,0,2M684.7,179.4c.5-.9,1.4-1.2,2.6-.8,1,.4,1.5,1.5,1.7,2.4-.2.6-.8,1.1-1.7,1-1.3,0-2.8-1.4-2.6-2.6M688.3,184.9c-.4,0-.1-.4-.4-.6.3-.3,1-.3,1,.2,0,.6-.4.5-.7.3M681.4,185.1c2.9.9-.8-2,.9-2.7-.3-.2-.5-.4-.9-.4.2.7-1,1.7,0,3.1M682.3,181.3c-.8-.4-.7-1.1-.3-1.6.3-.3.5-.1.9-.1.8.9.4,2-.6,1.8M678.2,187.1v-.2c.1,0-.4-.4-.4-.4.2.2.1.4.4.6"/>
    <path class="st4" d="M675.7,184.3c.9.9,2.5,1.4,3.5,1.6l-.7-.6v-.2c.5-.5.3-1.2-.2-1.6-1.5-1.1-1.7.6-2.6.8M678.3,182.4c1.5,1.2,0-1.1,1.5-.8l-.5-.4-1,1.2"/>
    <path class="st4" d="M677,184.9c.3.9.2,1.6,1.5,2.6.5,0,.8-.4.5-.6-.9-.7-.7-2.3-2-1.9M682.6,186.5c.2-.2.5,0,.8.3l-.3.4c-.2-.2-.3-.4-.4-.7M688.8,183.8c-.2.2-.2.9.5,1.1.5,0,1.4,0,1-.6-.4-.7-.9-.7-1.5-.5M688.2,180.9c.2.5.6.5.8.9l.5-.6-.6-.5c-.2.2-.5,0-.7.2M689.3,180c.2-.2.5,0,.6-.2.3.2.5.7.3.9-.3.4-1.2-.3-.9-.7M695.4,183c.3-.4.9,0,1.4,0,.3.2.9.7.6,1.2-.5.6-2.2-.3-2-1.2M709.5,175.4c-.5-.4-.2-.7-.5-1.4h1.4c.7,1.2,0,2.1-.9,1.4M705.5,177.8c2.1,1.2,1.4-1.8.9-2.1h-.7c-.7-.2-1.6,1-.2,2.1M686.2,180.9c.9.7,1.1,3,2.6,2.4-.4-.7-.2-1.6-1.2-2.3-.3-.2-1.1-.5-1.4,0M697.5,183c1.9,1,2.5-1.4,1-2.1-.4-.3-1.3,0-1.8.5-.5.6.6,1,.8,1.6"/>
    <path class="st4" d="M679.2,186.1l-3.1,1.4.9.7c1.1-.1,2.3-1,2.2-2.1M683.3,182c-.7.2-1.8,1-1.3,1.7.7-.2,2.4-.5,1.5-1.9l-.2.2M684.1,181.5c-.5.6.9,1.4,1.5,1.2-.1-.4.2-.9-.4-1.4-.5,0-.9,0-1.1.2M694,181c-.7.9,1.2,1.6,1.7,1-.4-.7-1.2-.9-1.7-1M697.1,177.8c.3-.4.2-.9,1-.6.4.7,1,1.9,1,2.5-1.4.6-1.5-1.2-2-1.9M701.1,180.2c-.3-.2.2-.2.5,0l-.4.4s-.3-.2-.1-.5M703.2,176.3c0-.7.7-.2,1.1-.2v.7c-.4.4-1,0-1.1-.5M687,182.2c1-3,5.2,1.2,6.8,0-1.5-5-5.4-.9-8-1.9-.5.6.4,1.2,1.2,1.9M681.7,187.2c.7,0,1.1-.6.9-1.2-.7,0-1.5-.7-1.3,0-.2.3,0,.9.4,1.2"/>
    <path class="st4" d="M686.7,182.9c.8,1.6,2.2.7,2.6.1.3-1.2-.4-1.2-1.5-1.6-1.1-.4-2.2.2-1.2,1.5M679.5,187.8c.7,0,1.3,0,1.8-.5-.6-1-1-1.3-1.7-1.3-1.1-.4-.9,1.2,0,1.9M674.8,186c.7-.9,2.6.1,2.7-.8l-1-1.3c-.8-.7-1.7-.4-2.2.2-.2.3-.3,1.2.5,1.9M706.3,178.5c.2-.3,1.1.4,1.1-.6l-.8-1.6c-.4-.3-1.3,0-1.5.2.2.6.4,1.2,1.2,1.9M680.7,182.1c.7,0,1.7.4,1.8-.5,0-.9-.3-2.2-1.9-1.9-.9.3-.8,1.8,0,2.5"/>
    <path class="st4" d="M703.6,179.1c.8,1.6,2.1.7,2.6.1.3-1.2-.3-1.2-1.4-1.6-1.1-.4-2.2.2-1.2,1.5M696.4,184c.6,0,1.3,0,1.8-.5-.6-.9-1-1.3-1.7-1.3-1.1-.4-.9,1.2,0,1.8M691.7,182.2c-.8-.7-.8-1.6-.6-1.9.5-.6,1.3-.9,2.2-.2l1,1.3c0,.9-2-.1-2.7.8M682.5,181.1c1,1.3,3.9,1.1,2.6-.8-1.2-1.9-3.2-2-4.3-1.4-.7.9,1,1.3,1.7,2.2"/>
    <path class="st4" d="M681.9,181.7c-.4-.3,0-.9-.4-1.2,0-.9.9-.3,1.5-.2.8.7.6,1.9-1.2,1.5M970,269.5l3.1-8.8c-3.7-1.3-7.4-2.5-11.1-3.8-3.7-1.2-7.3-2.4-11-3.6l-2.8,8.9c4.1,1.3,7.8,2.5,10.9,3.5,3.1,1,6.8,2.3,10.9,3.8M944.7,261.1l2.8-8.9h-.4c-10.5-3.4-21-6.4-31.6-9.2-10.5-2.7-20.9-5.2-31.2-7.3-42.7-8.9-84.2-12.8-124.3-11.1,3.2,2.6,4.4,9.1-1.1,8.1-.8-2.1,0-5.5.1-8.1h-.4c1.3,2.4,4.5,1.2,3.4,4.1-5.1-8.3-4.1,9.4-7.2-1.4.2-1.1.8-2,1.6-2.6h.2c.9,2.2,1.1,5.4-1.2,3.4.4-.9.2-2.1-.1-3.3-5.9.3-11.8.7-17.6,1.3.3,1.1.6,2.2,1,3.1l-.5,1.9c-1.9-.9-3.2-2.7-4.3-4.6-1,.1-2,.2-3,.3v1c.2-.2.3-.3.5-.4,1-.4,1.3.3,1.9.1.5,1.4-.7,3.5-2,2.1l.4,3.1c1.3.5,1.2,2.7.7,2.9-.1,0-.2,0-.4,0v-1.2c1.2.4,2.8,1.4,3.7.5-.2.2-.4.4-.5.7,6.6-.7,13.3-1.2,20-1.6h.2c0,0,.1,0,.1,0,5.4-.3,10.9-.5,16.4-.6,0-.2,0-.5.2-.8,1.2-1.2,2.2-.3,3.2.8h.6c-.4-.5-.8-1-1-1.5-2-2,1.1-3.3,1.2-4.7.5-.2,1.6-.6,2.3-.2-2.1,3.1,1.8,4.2,2.2,6.5,1.3,0,2.6,0,3.9,0v-.2c0,0,.6-.2.6-.2l.2.5c31.7.5,64.2,4.3,97.6,11.2,10.3,2.1,20.6,4.6,30.8,7.2,10.5,2.7,20.9,5.7,31.2,8.9h.4"/>
    <path class="st4" d="M734.7,235.7h-1.4c-.2-.3-.2-.5,0-1.3l1-.4.3,1.7M730.5,236.2l-2.5.3c.2-1.1,0-2.2-.7-3.2-1.5-2-2.5-1.6-3.5-1.2-.1,0-.2,0-.3,0h0c1.2-1.2,3.2,0,4.9.1l1.3.3c-.8,3.5-4,1.3-6.2.3v-.6c.7.1,1.5,0,2.2-.3.2-.9-1.2-3-2-3.5-.2-.1-.5-.2-.8-.3l.2,1.6h0c.4-.7.5-1.4.3-2.1l3-.4h0l3.6-.4.8,6.5c-.1.7-.2,1.4,0,1.9,0,0,0,0,.2.1v-1.1c-.6,0-1,0-1.3.3.2.7.4,1.2.7,1.5M723.8,234.9v-.6c0-.1,0-.2-.1-.3v.9M722.6,237.1l-.2-1.2c-.5-.2-.9-.6-1.2-1-.7-.7,0-2,.7-1.8,0,0,.1,0,.2,0l-.2-1.5c-.4-.3-.7-.7-1-1.1-.3-.8,0-1.5.6-2l.3,1.9c-.7-.3-1.4-1.2-1.9-2.3h-.7c0,1-.6,2-.8,2.5l-1-.2c0-.8.2-1.4.6-2.1l-2.3.3c0,.7-.3,1.3-.8,1.7-.8.3-1.6-.3-2.3-1.3-1.6.3-3.3.5-5.2.9,1,.4,2.2.4,2.3,2.2-.5,2-2.5,1.1-3.6-.2l1.3,7.5,1.1-.2c0-.2,0-.5,0-.7-.4-2.4,1.5-2.3,2.7-1.1.4.5.8.8,1,1.2h0c0-.1-.2-.3-.2-.4-1-2.5,1.1-3.3,2-2.7l.8.6c.1.4,0,1.3-.4,2.1h.1v-1c-.3-.7-1.6-1.1-2.1-.9-.2.7-.3,1.4-.2,2.3l1.6-.3.4-1.8c.7.2,1.5.7,2,1.4l2.7-.4c0-.4.3-.8.5-1.5l1.7,1.2,1.4-.2M706.1,231.4l-.2-1.2h.2c0,.4,0,.8,0,1.2"/>
    <path class="st4" d="M722.2,233.9v1c0-.3,0-.6,0-1M705.7,239.8l-1.7-9.2-2,.4h0s-2,.4-2,.4l1.2,6.6c.2.4.4.9.3,1.3h0s.2,1.3.2,1.3l2-.4,2-.4M699.9,240.9h-.3c0,0-.2-.7-.2-.7.1,0,.2,0,.3,0l.2.8M698.6,236.2l-.8-4.4h.3c0,0,.8,4.4.8,4.4,0,0-.2,0-.3,0M696.7,241.6l-1.9.4c-.3-.5-.6-1-1.1-1.2l-1.2-5.8c.3.1.6.2.9.1.2-1,.3-1.8.2-2.5l-1.6.3.2.9c1,.5,2,1.6,2.5.8l-.3-2.1h.5c0-.1.4,1.7.4,1.7-.2-.2-.3-.3-.5-.4-1.3.5-.1,2.4,1,2.6v.6c-.4.5-.6,1.6-.2,2.5.3.2.7.4,1,.6l-.4-2.2c-.3-.3-.6-.6-1-.4-.9,1,.5,3.4,1.6,3.1h0c0,.3,0,.6,0,1M685.5,241.4c1.1.6,2.4.8,3.5-.2,0-1.7-1.2-3-2-3.5-.8.3-1.6.4-2.2.7l.7,3M684.2,235.6c2-.2,4.1,1.2,6,3.1l-1.1-5.2h0s-.7.2-.7.2l-.7.2h-.4c.3.3.5.8.5,1.4,0,1.2-1.2.5-1.8,0-.3-.4-.4-.7-.4-1h.2s0,0-.1.1c-.4.6-.8.4-1,0h-.6c0,.1.2,1,.2,1M682.2,244.8l-.5-2c0-.9,0-1.9,0-2.7l-1.1-4.5-.7.2,1.1,4.4c.3.1.7.4,1,.8l.6,2.4v1.3c-.2,0-.3,0-.4,0M681.7,245l-.7.2v-.6c.1.1.4.2.7.2v.2M679.8,240.4c.1,0,.2,0,.4,0,0-.1.2-.2.3-.3l-1-4.2-.7.2,1.1,4.3M680.2,245.4h-.2s-.6-2.3-.6-2.3v.2c.2.2.2.4.4.5l.4,1.5M679.1,241.9l-1.4-5.5h0c0-.1.1-.1.1-.1l1.2,4.9c0,.2,0,.5,0,.8M679.9,245.4l-.7.2-2.3-8.9c.3.2.5.1.7,0l2.3,8.9M676.9,246.2l-2.4-9-3.6,1h0l-1.2.3c0,.8-.3,1.5-.4,2-.5.7-1.1.5-1.7.1l1.9,6.7h0s.7.7.7.7l2.7-.7c0-.1.3-.2.4-.1h0c0-.9.3-1.7,1.1-1.5.2-.7,1,.2,1.4,0,0,.2-.1.6-.2.8l1.3-.4M668.5,248.5c-.2-.3-.5-.6-.8-.8-.7.3-1.2.3-1.6.6l.2.9h.2c.5-1.1,2.2-1,2.9-1.8l-2-6.9c-.3-.2-.6-.5-.9-.6,0-.1,0-.3-.2-.4l-2.1.6c.2.5,0,.9-.3,1.1l-.2-.5c.2-.2.4-.3.7-.4.6-.3.8.2,1.3.5.3,1.4-.4,2.3-1.2,2.3l1.5,5.1c.4.3.8.6,1.1.9l1.3-.4M663.8,240.4v-.2c0,0,0,0,0,0v.2M662.1,250.4l-.5.2-1-3.2c.2.2.4.2.6,0l.9,3M659.9,245.2l-.3-1.1c.2.2.5.4.7.5h0c-.2.2-.3.4-.3.6M656.8,252.1l-2.8-8.7v-.2c0,0-3,1-3,1,.7,2,1,4.2,1.8,6.2-.5,1-.2,2.8-.8,3.4l2.3-.8c-.3-.1-.5-.4-.7-.9.3-.1-.5-1.3,0-1.6.8.2,1.6.4,1.8.8.2.5.2.9,0,1.2l1.5-.5M651.3,254c-.7-.7-1-2.6-2.1-1.7-.5,1,.3,1.5.8,2.1l1.3-.5M645.3,256.1c0-2.7,3.5-1.5,2.8-5.9l-1.6-1.4c1.4,0-1.2-4,1.5-2.6,0,1-.2,2.1.7,2.7.7.7,1.4,0,1.8-.7l-1.4-3.5-1.2.5c.4.9-.8,1.7-1.9,1,0-.1,0-.2,0-.3l-2.1.7c-3.4,1.2-6.7,2.5-10,3.8l3.4,8.7c1.6-.6,3.2-1.2,4.8-1.8h0c.1-.1.2-.1.3-.1,1-.4,2-.8,3-1.1M649.1,244.8h.2c0,0-.2,0-.2,0M633.5,258.9l-2.7-6.6c.1,0,.2,0,.4,0l2.6,6.5h-.3M631.9,261.3l-3.3-8c-.2.2-.5.2-.9.2,0-.1-.2-.3-.3-.4l-.9.4,3.6,8.6,1.8-.8M629.3,262.4l-1.7.7-1.4-3.3c.1,0,.2.1.3.2l-.6-1.5h-.2c0,0-1.7-4-1.7-4l1.7-.7,3.7,8.6M626.6,263.5l-1.1.5-1.4-3.3c.2-.4.5-.8.8-1.1l1.7,3.9M623.5,259.4l1.1-.4-1.8-4-1.1.4,1.7,4M624.6,264.4l-1.3-3c-.3,0-.6-.5-1-1.6h.3c0-.1-1.8-4.1-1.8-4.1l-.7.3,3.8,8.6.7-.3M621.2,265.9l-1.9.9-3.9-8.5,1.9-.9,3.9,8.5M618.9,267l-3.9-8.5-1.4.6,3.9,8.5,1.4-.6M617.3,267.7l-3.9-8.5h0s0,0,0,0l-1.1.5-1.1.5h0c-2,1-3.9,1.9-5.8,2.9l4.2,8.4c1.6-.8,3.5-1.7,5.7-2.7h0l1.1-.5,1.1-.5h0s0,0,0,0M607,272.7l-3.3,1.7h0c-.9.4-1.9,1-3.2,1.7h0s-2.5,1.3-2.5,1.3l-4.3-8.3,2.5-1.3c.9-.5,2-1,3.3-1.7h0s3.3-1.7,3.3-1.7l4.2,8.3M596.1,278.4l-4.3-8.3-2.5,1.3,4.3,8.3,2.5-1.3M593.3,279.8l-4.2-8.3-1,.5,4.2,8.3,1-.5M591.1,280.9c-1.9,1-4.1,2.1-6.5,3.2-2,1-4.2,2-6.5,3.2l-4-8.5c2-.9,4.1-2,6.4-3.1,1.9-.9,4-2,6.4-3.2l4.2,8.4M576.1,288.3l-4-8.5c-3.2,1.5-6.5,3-9.7,4.5l.3,1h-1.6s-.7,0-.7,0h-.4c-4,1.9-7.9,3.6-11.9,5.3l3.6,8.7c4.1-1.7,8.1-3.5,12.2-5.2,4.1-1.8,8.2-3.7,12.2-5.6M549.4,300.2c-2.6,1.1-5.3,2.2-8.3,3.4-2.7,1-5.4,2.1-8.3,3.2l-3.2-8.7c2.6-1,5.3-2,8.1-3.2,2.5-1,5.2-2.1,8.2-3.3l3.6,8.6M530.6,307.6l-3.3-8.7-.9.3-1.9.7,3.3,8.8,1.8-.7h0l.9-.4M523.6,310.1h-.2c0,0-2.5,1-2.5,1l-3.2-8.8,2.5-.9h.2c0,0,3.1,8.7,3.1,8.7M518.2,312l-3-8.8-2.9,1,3,8.9,2.9-1M512.5,313.9c-7.2,2.4-14.4,4.6-21.6,6.7-7.1,2-14.3,3.9-21.5,5.7l-2.2-9.1c7.1-1.7,14.1-3.6,21.1-5.6,6.9-2,14-4.2,21.2-6.6l3,8.9M465.2,327.3l-1.8.4-2.1-9.1,1.8-.4,2.1,9.1M457.9,329l-1.4.3-2-9.1,1.4-.3,2,9.1"/>
    <g class="st1">
      <path class="st4" d="M456.5,329.3l-2-9.1c-44.5,9.6-88.2,13.1-131.7,12.2-43.5-.8-86.9-5.9-130.6-13.3l-1.6,9.2c44,7.5,87.9,12.6,132,13.4,44.2.8,88.7-2.7,133.8-12.5"/>
    </g>
    <path class="st4" d="M166.2,323.9c-6.1-1.1-12.3-2.3-18.4-3.6-6.1-1.2-12.3-2.5-18.4-3.8l1.9-9.2c5.7,1.2,11.8,2.5,18.3,3.8,5.9,1.2,12,2.4,18.3,3.5l-1.7,9.2M127.6,316.2l-4.4-.9h0l-4.4-1,1.9-9.1,4.4.9h0l4.4.9-1.9,9.1M115.4,313.6l-3.4-.7,2-9.1,3.4.7-2,9.2M108.4,312.1l-1.2-.3,2-9.2,1.2.3-2,9.2M101.1,310.5l-1.3-.3h0l-1.7-.4-1.7-.4,1.9-9.1,1.7.3,1.7.4h0l1.3.3-2,9.2M93.7,309c-4.2-.9-8.5-1.6-12.8-2.3-4.2-.7-8.4-1.2-12.6-1.7l1-9.3c4.3.5,8.7,1.1,13,1.7,4.3.6,8.7,1.4,13.2,2.3l-1.8,9.2M62.6,304.4l-3.2-.3-3.1-.2.6-9.3,3.2.3h0l3.2.3-.8,9.3M52.3,294.2c-10.2-.6-20.3-.6-30.5-.1l.9,9.3c9.5-.4,19.2-.4,29.1.1l.5-9.3M969.4,214.8c-4.7-1.7-9.3-3.3-14-4.9-4.7-1.6-9.3-3.1-14-4.5l2.8-8.9c4.7,1.5,9.4,3,14.1,4.6,4.8,1.6,9.5,3.2,14.2,4.9l-3.2,8.8M940.2,205l2.8-8.9-4.1-1.3-2.8,8.9,4.1,1.3M931.7,202.4l-1.7-.5,2.6-9,1.7.5-2.7,9M925,200.5l-2.4-.7,2.5-9,2.4.7-2.5,9M922,199.6l2.5-9h-.4c0,0-2.5,8.9-2.5,8.9h.4M917.6,198.4c-3.8-1-7.5-2-11.3-3-4-1-7.7-1.9-11.3-2.8l2.1-9.1c4,.9,7.8,1.9,11.4,2.8,3.5.9,7.3,1.9,11.5,3.1l-2.4,9M891.7,191.8l2.1-9.1-1.3-.3c-15.1-3.5-30.2-6.4-45.5-8.6-14.8-2.2-29.7-3.8-44.6-4.7-28.3-1.7-55.8-.9-82.7,2.5,0,.2-.2.3-.7.3l-.2-.2c-1.5.2-3,.4-4.5.6,0,.4,0,.8-.3,1,0,.9-.9,1.2-2.2.2-.4-.2-.8-.4-1.1-.7h.6c-.4.2-.9.2-1.4.1-3.4.5-6.8,1.1-10.2,1.7.9,0,1.7-.7,2.5.5.4,1.4-1.2,1.5-2.3,1,0-.4-.6-.8-.7-1.4-2.6.5-5.2,1-7.8,1.5l.7.2c-.5.6-.5,1.5-1.6,1.1l.5-1.3c-1.7.4-3.4.7-5.1,1.1.5,1.1-.7,2-2,.9,0-.1,0-.3-.2-.4h.6c-.5.4-1.2,1.1-2.5.5h0s-.2,0-.2,0c.1,0,.2.2.2.3,0,.6-.5.2-.7.3-.2-.1-.3-.3-.4-.4l-1.5.4c0,.1-.1.2-.3.3,0,0-.2-.1-.3-.2l-1.4.3c-.2.2-.3.4-.5.6h-.8c.2-.1.2-.2.3-.4h0c0,.1,0,.2.1.2.4.3.7,0,.7-.4l-.7.2h0c.9.4.2,1.3-.5.7-.2-.1-.3-.3-.3-.5-2.4.6-4.8,1.2-7.2,1.8h0c0,0,.1.4.1.4h-.9c.5.5.7,1.8-.2,1.4-.8-.8-.3-1.2.1-1.6-26.3,7.1-51.7,17.2-75.7,29.9-2.9,1.6-5.8,3.1-8.8,4.6-2.9,1.5-5.8,3-8.8,4.4l4.1,8.4c3.4-1.7,6.3-3.1,8.9-4.4,3-1.5,6-3.1,8.9-4.6,23.4-12.4,48-22.2,73.6-29.1-.6-.4-1.1-.9-.8-1.4,1.3-.7,1.4-2.3,3.7-1.2,0-.4-.3-1.1.2-1.3,1.8,2.3-1.7,1.7-2.2,3.3.2,0,.3.2.4.3l2.4-.7-.2-.4c.4-.2.7,0,.9.2h.1c-.2,0-.3,0-.4,0l-.2.2h.3c-.4-.6-.7-1,.4-1,.1.2.3.5.4.7h0c0-.6-.5-1.4.8-1,.3.2.5.5.6.7h.3c0-.1-3.7-3-3.7-3,.3-.4,1.4-.8,2.3.1.9.7,1.7,1.7,2.6,2.5l-.9.2c-.3,0-.6-.3-1-.5-.7,0-.8-.7-.8-1.6l2.4-.5-1-2.2c2.4-1.7,4,2.7,6.7,3.3l1.6-.4h-.2c-.1-.5-.2-.9.2-.9.6,0,.7.4.8.7l2.2-.5c.9-1.7,3-1.7,5.2-1.1,1.5-.3,3-.6,4.5-.9-.2-.3-.3-.7,0-.9.3-.4.9,0,1.1-.1.3.2.4.5.5.8,1.3-.2,2.6-.5,3.9-.7-.4,0-.7,0-.7-.6-.2-.6.5-.6.3-1.2l1.1.4v1.3c7.4-1.3,14.6-2.3,21.9-3.2-.6-.7-1.2-1.5-2-1.9.6-1.4-.7-3.4,1.3-3.8,1.4-.3,3.2,1.6,4.1,2.7.2.8.4,1.7.4,2.5,23.6-2.5,47.7-3,72.4-1.5,14.7.9,29.3,2.5,43.8,4.6,14.8,2.2,29.7,5,44.8,8.5l1.3.3"/>
    <path class="st4" d="M690.2,186c0-.4-.2-.7-.7-.9-.8,0-.9.7-.4,1.1h0c0,0,1.1-.2,1.1-.2M574.2,231.2l-4.7,2.2c-1.8.8-3.4,1.6-4.7,2.2l-3.9-8.5c1.8-.8,3.3-1.5,4.6-2.1,1.8-.9,3.3-1.6,4.6-2.2l4,8.4M562.5,236.6l-3.8-8.5c-1.1.5-2.6,1.2-4.5,2-1.2.6-2.7,1.2-4.5,2l3.7,8.6c1.2-.5,2.8-1.2,4.6-2,1.1-.5,2.7-1.2,4.6-2.1M549.9,242.2l-2.4,1h0l-.5.2c-.3-.5-.5-.8-.5-.9-.1-.4-1.6-1.7-3.3-2.8l-1.7-4.1,2.4-1h0c.5.6,1.7,1.3,2.5,1.7.4.2.9.6,1.3.9l2.1,4.9M544.3,234.4l2.8,1.3-.9-2.1-1.9.8M528.2,250.9c-1.9.7-3.9,1.5-5.8,2.2-2.2.8-4.1,1.5-5.8,2.1l-3.1-8.9c2.1-.8,4-1.4,5.7-2.1,2-.7,3.9-1.4,5.7-2.1l3.3,8.7M516.6,255.1l-3.1-8.9-3.3,1.2,3.1,8.8,3.3-1.1M508.3,258l-1.6.5-1.7-5h.4c0,0-.5-.3-.5-.3l-1.2-3.6,1.6-.6,3,8.9M504.9,259.1l-1.7-5.2h-.5c0,0,.4-.3.4-.3l-1.1-3.4-1.1.4,1.3,4.1h.4s-.4.1-.4.1l.2.6h.9c0,.1-.8.3-.8.3l1.2,3.7,1.1-.3"/>
    <path class="st4" d="M503.8,259.4l-1.2-3.7h-.3c0,0-1.1.4-1.1.4l-1.2,2.1-1.2,2.1.6.6.6-.2h0s3.7-1.2,3.7-1.2h.1M496.2,261.8l-.7-1.4,1.4-.8,1.5-.7-.6-2.4h-.5c0,.1-1.3.4-1.3.4l.6-.6.5-.6.8.3h0l.7-.5.8-.6.4-.5h1.4c0,0,1,.2,1,.2l-1.3-4.1h0l-3.7,1.2-3.7,1.1c-6.2,1.9-12.4,3.7-18.7,5.4l2.4,9c6.4-1.7,12.8-3.5,19.1-5.5h0"/>
    <path class="st4" d="M502.2,254.7l.2.7-1-.2h-.7c0,0,1.5-.5,1.5-.5M472,268.6c-4.6,1.2-9.2,2.3-13.8,3.4-4.6,1.1-9.2,2-13.8,3l-1.8-9.2c4.5-.9,9-1.9,13.5-2.9,4.5-1,9-2.1,13.6-3.3l2.3,9.1M440.8,275.7c-28.9,5.6-57.6,8.7-86.1,9.8-28.5,1.1-56.8.1-85.1-2.2l.8-9.3c28,2.4,55.9,3.3,84,2.2,28-1,56.2-4.1,84.7-9.6l1.8,9.2M266.1,282.9c-2.6-.2-5.6-.5-9.3-.9h0c-3.1-.3-6.1-.6-9.2-1l1-9.3c2.4.3,5.4.6,9.2,1h0c2.5.3,5.6.6,9.1.9l-.8,9.3M244.4,280.7l-1.8-.2,1.1-9.3,1.9.2-1.1,9.3M237.7,279.9h0s-2.7-.4-2.7-.4h0l-2.7-.3h0c-4.3-.5-8.9-1.2-13.8-1.8l1.3-9.2c4.3.6,8.9,1.2,13.7,1.8l2.6.3h0l2.7.3h0l-1.1,9.3M216.9,277.1h-1.2c0-.1,1.3-9.4,1.3-9.4l1.2.2-1.3,9.2M212.2,276.5h-.7c0,0,1.4-9.3,1.4-9.3h.6c0,0-1.4,9.3-1.4,9.3M186.2,272.3l-4.2-.7h0l-4.2-.7,1.6-9.3,4.2.8,4.2.7-1.6,9.2M168.3,269.1h-.6c0-.1,1.7-9.3,1.7-9.3h.6c0,.1-1.7,9.3-1.7,9.3M156,266.8c-3.3-.6-6.6-1.3-10-1.9h0c-4-.8-7.3-1.5-10-2l1.9-9.1,1.1.9,1.5-.6,4.6.9v.2c.1,0,1.1,0,1.1,0l1.7.4c3.8.8,7.2,1.4,9.9,1.9l-1.8,9.2M127.3,261.1l-6-1.2,1.1-5.3c.3.1.7.2,1.1.1l1.8-.2v-2.3c-.1,0-.2-1.2-.2-1.2l.9.2,1.3,1.7h1.6c0-.1-1.7,8-1.7,8M113.1,258.1l-5.3-1.1-5.3-1.2.4-1.9,11.3-1-1.1,5.2M104.3,247.9l.3-1.3,5.3,1.2,3.2.7-1.4.9-2.4-.8c-1.2-.4-3.3-.6-5-.6M98.8,255l-2.1-.5h.8c0,0-1.3-1.2-1.3-1.2l-1.3-1.2,1.9-.2c.8,0,1.9.2,2.6.6l-.6,2.4"/>
    <path class="st4" d="M100.8,245.9l-3.3-.7-1.9-.4-1.4,1.2-3.1,2.6-3-.5-3-.5,5.7-3.7c-4.1-.8-8.1-1.5-12.2-2.2-.1.1-.4.2-.7.3-.5,0-.9-.2-1-.5-1-.1-2-.3-3.1-.4h0c0,.1,1.6,3.2,1.6,3.2l-2.4-2.2-1.4-1.3c-3.4-.4-6.7-.9-10.1-1.2.1.7-.7,1.4-1.7,1.5-1,0-1.9-.4-2-1.1,0-.2,0-.5.2-.7-8.1-.8-16.3-1.1-24.5-1.2-1.5,0-3.1,0-4.6,0l.2.3c.5.8.5,2,0,2.4l-1,.9-1.2-.7-1.2-.7,1.2-1.8.4-.5c-1.6,0-3.2,0-4.7.1l-2.7,2.6-2.4-1.3,1.7-1.1c-1,0-1.9.1-2.9.2l.9,9.4c5.4-.3,10.8-.4,16.2-.4h.6l1.1-1.6,1.2-1.6,1.8,1.6,1.8,1.6h-.3c11,.4,22.3,1.4,33.8,3h.2c0,0,0,0,0,0,6.5.9,13,2.1,19.6,3.5l-.2-1.9,3.6-1c1.4-.4,2.6-1,3.2-1.4l.2-1.1v-.3c0,0,0,0,0,0l.5-2.2M948.8,153.2l-2.3-.7,2.9-8.9,2.2.8-2.9,8.9M944,151.6h-.2c0,0-2.2-.8-2.2-.8h0s-2.2-.7-2.2-.7c-3.8-1.2-7.5-2.4-11.3-3.5l2.7-8.9c3.8,1.1,7.6,2.3,11.4,3.5l2.2.7h0s2.2.7,2.2.7l-1.2,3.6-1.6,5.4M923.3,145.3l-2.6-.8,2.6-9,2.7.8-2.6,9M916.3,143.2l-2-.5v-.3c.5,0,.9.1,1.3.3.4-.4.8-.8,1.1-1.2l-.5,1.8M917.9,134l.9.2-.5,1.9c0-.7-.2-1.5-.4-2.2M903.7,139.8l-.8-.2.6-2.2c.2.4.4.7.6,1.1l-.4,1.3M900.9,139.1l1.1-4.3c-1-2-.9-3.7-.4-5.2-1.9-.5-3.7-.9-5.6-1.4.4,1.1.3,2.5-.4,3.6-2.3,2.5-4.3.2-7-3.5.2-.6.4-1.2.6-1.8-8.2-1.9-16.5-3.7-24.8-5.2-1,1.8-3.7,2.2-5.2.6-.5-.5-.8-1.1-1-1.7l-3.2-.6-2.8-.5c-.8,3.3-1,6.8-6.3,3.5l-9.1-5.8c-2.7-.4-5.5-.7-8.2-1.1,0,0-.2.1-.2.1-.7.3-1.3,0-2-.4-4.6-.5-9.2-1-13.9-1.4-.2.4-.4.8-.6,1.2-.8.3-2.5,0-3.7-1.5h0c-4.3-.4-8.7-.7-13.1-.9.2.8.1,1.7-.3,3-1.2-.8-3.4-1.7-5-3.2-2,0-4-.2-6-.2-.6.8-1.8.9-2.7,0h-2.7c-.2,1.2-.6,2.3-1.8,2.3-.6-.6-1-1.7-1.5-2.4h-2.6c-.4,1.8,1.6,2.7,2.2,4.2-2.3.9-6.5,1.7-7.8,5l-1.2-1.3c-1.1-5.3,3.3-4.5,4.7-7.9-5.8,0-11.6,0-17.3.3,0,.8-.2,1.5-.9,1.8-1.3-.3-2-.8-2.7-1.6-4.8.2-9.7.5-14.5.9-.5.4-1.1.6-1.9.6l-.2-.4c-13.3,1.1-26.6,2.9-39.8,5.3v.2c0,0-.1-.2-.1-.2-21.9,4.1-43.2,10-64,17.9l.6.2,1.4.6-1,1.1-1,1.1-.7-2.8c-1.9.7-3.8,1.4-5.7,2.2h.8c0,.1,4.3.7,4.3.7l-2.4,1.7-2.5,1.7,2.3,5c1.7-.7,3.4-1.4,5.1-2-.2-.1-.5-.2-.7-.4l-1.5-1,3.8-.9.3,1.2v.2c31.2-11.8,63.8-19.2,97.6-22.4h.3c0,0,0,0,0,0,9.7-.9,19.5-1.4,29.2-1.7v-.9c1.2-.1,2,.2,2.6.8,2.3,0,4.7,0,7,0h0c-.3-.8.8-1.3.5-2.1.8-1.2,1.4.3,2.3.9.2.4.2.8.1,1.2,7.2,0,14.5.3,21.8.7v-.6c.8-1,2-.5,2.2.8h-.8c.3-.2.7-.2,1.1,0,3.7.2,7.5.5,11.2.8,15,1.2,30.4,3.2,46,5.9,15.5,2.7,31.2,6,47,10.1h.5"/>
    <g class="st3">
      <path class="st4" d="M892.6,27l1.1-4.3c-1-1.9-.9-3.7-.4-5.2-1.9-.5-3.7-.9-5.6-1.4.4,1.1.3,2.5-.4,3.6-2.3,2.5-4.3.2-7-3.5.2-.6.4-1.2.6-1.8-8.2-1.9-16.5-3.6-24.8-5.2-1,1.8-3.7,2.2-5.2.6-.5-.5-.8-1.1-1-1.7l-3.2-.6-2.8-.5c-.8,3.3-1,6.8-6.3,3.5l-9.1-5.8c-2.7-.4-5.4-.7-8.2-1.1,0,0-.2,0-.2.1-.7.2-1.4,0-2-.4-4.6-.5-9.2-1-13.9-1.5-.2.4-.4.7-.7,1.1-.8.3-2.5,0-3.7-1.5h0c-4.3-.4-8.7-.6-13.1-.9.2.8.1,1.7-.3,3-1.2-.8-3.3-1.7-5-3.3-2,0-4-.2-6-.2-.6.8-1.8.9-2.7,0h-2.7c-.2,1.2-.6,2.3-1.8,2.3-.6-.6-1-1.7-1.5-2.4h-2.5c-.4,1.8,1.6,2.7,2.2,4.1-2.3.9-6.5,1.7-7.8,5l-1.2-1.3c-1.1-5.3,3.3-4.5,4.7-7.8-5.8,0-11.5,0-17.3.3,0,.8-.2,1.5-.9,1.8-1.3-.3-2-.8-2.7-1.6-4.8.2-9.7.5-14.5.9-.5.4-1.1.6-1.9.6l-.2-.4c-13.3,1.1-26.6,2.9-39.8,5.3v.2c0,0-.2-.2-.2-.2-21.9,4.1-43.2,10-64,17.9l.6.2h-1.3c-1.9.7-3.8,1.5-5.7,2.2h.8c0,.1,4.3.7,4.3.7l-2.4,1.6-2.4,1.7,2.3,5c1.7-.7,3.4-1.4,5.1-2-.2,0-.4-.2-.7-.4l2.4-1.9.3,1.2v.2c31.2-11.8,63.8-19.2,97.6-22.4h.3c0-.1,0,0,0,0,9.7-.9,19.5-1.5,29.2-1.7v-.9c1.2-.1,2,.2,2.6.9,2.3,0,4.7,0,7,0h0c-.3-.8.8-1.3.5-2.1.8-1.3,1.4.3,2.3.9.2.4.2.9.1,1.2,7.3,0,14.5.3,21.8.6v-.6c.8-1,2-.5,2.2.7h-.8c.3-.2.7-.1,1.1,0,3.7.2,7.5.5,11.2.8,15,1.2,30.4,3.2,46,5.9,15.5,2.7,31.2,6,47,10h.5"/>
    </g>
    <path class="st4" d="M616.9,152c-8.5,3.7-16.8,7.7-25,12.1-9.1,4.9-18.4,9.5-27.8,13.9l-5.8-5.2-2,.3c-1.1.2-2.7.5-3.4.8-.5.2-1.1,0-1.4-.3,12.2-5.4,24.2-11.3,36.1-17.6l2.2-1.2c.5.1.9.1,1.1,0l1.7-.4,1,3.8,1.8-.4c1-.2,3.2-1.9,4.9-3.9l3.1-3.5h2.8c0,.1,2.8.2,2.8.2l-1-3.8-8.6,3.1h-.2c1.2-.7,2.5-1.2,3.7-1.8l.4.2v-.4c5.5-2.5,10.9-4.9,16.5-7.2l.5,2-2.3,1.6c-1.2.9-2.3,2.5-2.3,3.6,0,.7.5,2.4,1.3,4.1M550.6,184c-.7-.4-1.4-.7-1.9-.9l-3.2-1.3,2.1-1.6,2.2-1.6-1.9.2c-1,.1-3,.4-4.4.6l-2.5.4-1.5-1.2c-8,3.3-16,6.5-24.1,9.4l-.2.6c-.5,1.2-1.3,2.3-1.8,2.4l-.9.2.3.7c.2.4.5,1.3.8,2.1l.5,1.4.9-.7.9-.6v.5c.2.3-.3,1.2-1,2.1l-1.3,1.6h-1.5c0,0-1.5-.1-1.5-.1v-3c-.2-1.7,0-3.4.3-3.9l.6-.9-.5-.6c-6.5,2.3-13,4.5-19.6,6.5,1,0,2,0,2.5,0,1,0,2,.5,2,.8l.2.7h-3.7l-1.3.9-1.3,1-1.5-.5c-.8-.3-1.6-.9-1.7-1.4h0c-3.7,1.1-7.4,2.1-11.1,3.2l.5,1.2-.9,1.2-1,1.2-2-.3c-.9-.1-1.9-.5-2.6-.9l-.2-.8-3.8,1c-40,10.3-79.4,15.4-118.5,16.7l.3,9.4c39.8-1.3,79.9-6.5,120.5-16.9,7.3-1.9,14.6-3.9,21.8-6.1l-.7-1.7-1.5-3.7,5.1,3.6,5.2-1.2v.4c17.6-5.6,35.2-12.2,53-20M776.8,112.2h1.5c.2.2.3.4.2,1l-1.4.6c-.3-.8-.4-.9-.3-1.6M826.7,115.7h.8c-.3.1-.6.1-.8,0h0M337.3,229.8l-.2-9.4c-3.6,0-7.3,0-10.9.1-4,0-7.7,0-10.9-.1l-.2,9.4c4.1,0,7.8.1,11.1,0,3.5,0,7.2,0,11.1,0M307.8,229.7c-7.4-.2-14.9-.5-22.3-1-7.4-.4-14.8-1-22.2-1.7l.8-9.3c7.4.7,14.7,1.2,22,1.6,7.3.4,14.7.8,22,1l-.2,9.4M258.4,226.6l.8-9.3c-1.7-.2-3.4-.3-4.9-.5l-1.4,3.2,1.9,3.1-4,.4-.3-2.5c-.1-1.1.2-2.9.8-4.5l-3.2-.3c-1.6-.1-3.3-.3-5.2-.6.4.5.7.9.7,1.1,0,.5,1.2,2.7,2.6,5l2.4,4c3.6.4,6.9.7,9.8,1M245.7,225.3c-3.7-.4-7-.8-9.8-1.1l1.1-9.3,1.9.2,1.6.9,2.5,3.6c1.4,2,2.6,4.3,2.7,5.1v.6M229.9,223.5h-.8c0,0,1.2-9.4,1.2-9.4h.8c0,0-1.2,9.4-1.2,9.4M221.9,222.4l1.2-9.3c-7.7-1-15.5-2.2-23.2-3.4l1.2.6,1.2.7-.5,1.9c-.2,1.1-.7,1.9-1,1.9-.2,0-.6-1.2-.8-2.6l-.3-2.6c-8.2-1.3-16.4-2.6-24.6-4.1.2,0,.4.2.4.4,0,.3-.3.7-.8.7-.5,0-1-.2-1-.5,0-.4.3-.7.9-.8-5.4-1-10.8-2-16.2-3-11.4-2.2-22.8-4.4-34.2-6.8l-1,.9-1.1,1-.3-2.4c-6.9-1.4-13.7-2.9-20.6-4.4l.4,4.8-2,.7-2,.6.3,2.7c4.6,1,9.2,2,13.7,3,.3-.4.8-.7,1.4-.8.9,0,2.3.4,3.1,1.1l.9.9c9.4,2,18.8,3.9,28,5.7l.8-.8c1.1-1.2,2.5-1.9,3-1.7.5.3.4,1.2-.1,2-.2.4-.7.7-1.1,1,2.1.4,4.3.9,6.4,1.2h.2,0s2.3.5,2.3.5c3.3.6,6.6,1.2,9.8,1.8l-1.2-4.6,2.4-.2c1.3-.1,2.9.3,3.6.9l1.2,1.1-3.1,1.6-2.4,1.3,1.2.2,3.4-.3,5.3-.4-.9,2.1c7.9,1.4,15.8,2.7,23.7,3.9l-.3-2,1.4.8,1.3.8-.8.7c6.9,1.1,13.7,2,20.6,3M91.9,198.4c-.2-.9-.3-1.9-.3-2.9v-2.4c0,0,2.7,1.2,2.7,1.2l2.7,1.2.8-3.1c.2-.8.3-1.6.3-2.4l-4.9-1.1c-4-.9-8.1-1.7-12-2.4l-1,1.1-2,2.2-1.5-2.8-.8-1.5c-1.9-.3-3.8-.6-5.7-.9l-6.7.6-3.6,2.2-3.6,2.2-1.3-.7c-.7-.4-3.3-.6-5.9-.4l-4.7.3.2,1.6c0,.3,0,.6-.2.9,7.9.5,15.8,1.3,23.9,2.4h0c0,0-6.8-2.8-6.8-2.8l2.4-2.1.8,1.3.8,1.3,1.4-.8,1.4-.8,3.8,2.3,3.8,2.3-.3.2c1.7.3,3.3.6,4.9.9l.6-2.3,1.2,2.5h0c3,.7,5.9,1.3,8.9,2l.8.2M41.3,191.5c-.9,0-1.9,0-2.8-.1l.9-.8,2.7-2.3-.8,3.1h0M31.6,181.9l-2.2.2c-1.3.1-3.5,0-5.2-.2-4.4,0-8.7.2-13.1.5l.3,2.7h.7c0,0-.6.8-.6.8v1.4c.1,0,1.6-.7,1.6-.7l3.2-1.6,11.4,1.2,2.2-1.6,2.2-1.6,7.2-.8c-2.5-.1-5.1-.2-7.6-.2M960.8,102.8l-.6-.2,3.2-8.8.5.2-3.1,8.8M956.8,101.4l-2.1-.7,3-8.8,2.2.7-3.1,8.8M954.2,100.5l3.1-8.8-.6-.2-3.1,8.8.6.2M944.1,97.1l-1.2-.4,2.9-8.9,1.2.4-2.9,8.9M929.6,92.5l-2-.6-2-.6,2.3-7.7c.2.2.4.4.6.7-.4,1.8-1.4,2.2-.2,4.8,3.9,1.8,1.3-2.6,1.1-6.5l-1-.3v.3c.6.7,1.3,1.1,1.6.1l.4.2,2,.6-2.7,8.9M922.8,90.4l-.5-.2,2.4-8.1h.5c0,.1-2.4,8.2-2.4,8.2M920.2,89.6h-.2c0,0,2.4-8.2,2.4-8.2h.2c0,.1-2.4,8.2-2.4,8.2M919.8,89.5l2.4-8.2c-.2-.2-.5-.4-.6-.7l-2.5,8.7.8.2M917.4,88.8l-2.8-.8.8-3c1.3-1.2,2-3.6,1.7-6h0s2.8.8,2.8.8l-2.6,9M907,85.9l-2.5-.7c.2-.5.3-1.2.2-2l-3.2-2.3c-.3,1.7-1,2.2-.8,3.3l-1.4-.4,2.3-9.1,2.5.7h0l.7.2c-.8.6-1.1,2.1-.2,3.1.3.3.7.7,1,1l-.7,2.4.7-2.4c.8.6,1.8,1.1,2.7,1.1l.9-3.4c0-.2-.2-.4-.3-.6l-2.3-.6v.4c-.2,1.6.5,3.6,1.5,5.4l-1.1,4"/>
    <path class="st4" d="M906.6,76.1v.4s0-.4,0-.4h0M899.3,83.8l2.3-9.1-2.8-.7-2.3,9.1,2.8.7M893.6,82.4l2.3-9.1h-.2s-1.7-.4-1.7-.4c-.3,0-.5,0-.8-.2-5.1-1.2-10.2-2.4-15.2-3.5,2.1,1.7,5.4.7,5.6,4.8-.9,3.9-4.8,2-6.8-.7.2-1.1-.4-2.8.2-4.3-3.4-.7-6.7-1.4-10.1-2.1-3.8-.8-7.5-1.5-11.3-2.1-1,.5-1.9.8-3.1-.6-3-.5-5.9-1-8.9-1.5,1.4,2.3,1.2,5.3.4,7.5-1.2.9-2.9,1.3-4.6.6l-.6.6,2.5.4c.2-.9.2-1.9-.2-3l.5-.6-.7.2c-.4-1-1.9-2.7-3.3-2.1.3.8.4,1.7.4,2.7l1.7-.4c-1-.6-2-.8-2.7-.3l-.7-2.8c0-.7.3-1.2,1-1.5,3.9,5,14.9,2.8,16.6,9.9-1.7-.3-3.5-.6-5.2-.9.3-.8.8-1.3,1.3-1.5,1.9-.8,4.4-.2,5.5,2.5v.2c3.2.6,6.3,1.2,9.5,1.8l2.4.5c.2-1.1.4-2.3.4-3.1,1.4-.6,1.7-1.8,3.2-.2,0,1.2,0,2.6-.1,4,4.7,1,9.3,2,14,3.1-.4-.6-.6-1.5-.4-2.2,1-1.6,1.8.4,2.9,1.2l-.9,1.4,1.3.3c.8-1.3,2.6-1.7,3.5-.9l1.6,1.1c0,.2.1.6,0,1.1h.3c0,0,0,0,0,0h.2"/>
    <path class="st4" d="M841,68.9l-.3.3c.1.1.2.2.3.4.8.9,1.6,1.7,2,2.3l2.8.5c-1.5-1.9-3.1-3.3-4.8-3.5M809.6,65.5l-.2,1.9-6.5-2.1c-.4.6-.7,1.2-.9,1.7l1.8.2c-1-1.3-2.1-2.8-1.4-4.7.5-.8,1.1-1.6,2-1.9.3.8.6,1.5.8,2-.6-.2-1.2-.2-1.7,0-.7-1.7-.5-3.1,0-4l.6,1.5c-.4-.6-.8-1.2-1-1.8,0-.2,0-.4,0-.6-1.2,0-2.4-.2-3.5-.3.1.2.2.3.3.5.3.8.8,3.4-1.4,1.5-.2-.6-.2-1.3,0-2-3.1-.2-6.2-.4-9.4-.6l-.9,1-1.4-.6-1.5-.6h0c-1.7,0-3.4-.2-5.1-.2h-.5c0,.1,0,0,0,0-2.9,0-5.9-.2-8.8-.2,1.7,2.8-.9,4.5-2.9,2.9l-1.2.7-2.1,1.1-.6-2.4c-.3-1-.2-1.9.2-2.3-7.2,0-14.3.2-21.4.5l-5.9,1.3-1.8-.8c-1.7.1-3.4.2-5.1.4l-.2.3-1,1.1-.3-1.3c-1.4.1-2.8.2-4.1.4-.2.1-.3.2-.5.2-.3,0-.6,0-.8-.1-1.5.2-3,.3-4.6.5-.4.6-.4.9,0,.8.7-.1-.1,1.8-1.7,4.4l-2.9,4.6-.7.2c2.2-.3,4.4-.5,6.6-.8l-1.1-4.3,3-1.2,3.1-1.2,2.2,3.2,6.3-2.7-1,3.8-4.6-.2-4.6-.2-.7,1.2-.6,1.2h0c6.2-.6,12.4-1.1,18.7-1.5,0,0-.1-.1-.1-.2,0-.3.2-.7.7-.8.5-.1,1,0,1.1.4,0,.2,0,.4-.2.6,2.7-.1,5.3-.3,7.9-.3,1-2,2.4-3.5,4.2-3.4,1.5,1.2,2.2,2.2,2.4,3.2,6.1-.1,12.2-.1,18.3,0h.3c0,0,0-.2,0-.2,0-.4.3-.7.8-.7.5,0,1,.2,1,.6h0c0,0,.3.4.3.4,1.4,0,2.8,0,4.2.1,0,0,0-.2.1-.2.4-.6,1-1.1,1.4-1.4,0-.9.6-1.4,1-2.9,1.7-.7,4.7,1.8,4.8,4.8-1.4,0-2.8-.1-4.1-.2-.3-.3-.7-.5-1-.8,0,.2-.1.5-.2.7h.7c-.4-1.1-.3-2.2.7-2.9,4,.2,6.4-3.5,10.7,2.1.2-1,.7-3.1,2.2-2.7.5,2.9-.4,3.9-1.7,4.1,1.8.1,3.6.3,5.3.4l-2.5-6.2c1.1-.4,4.6,0,5.3,3.4.4,1,.8,2.1,1.1,3.2h-.8c0-1.2.9-2,1.9-2.6v.3c.1,0,1.4-.9,1.4-.9h0l.2-.2c.6.4,1.2.8,1.7.9,0,.1-.1.3,0,.5,0,0,0,.1.1.2M709,69.3c-2.9.4-5.9.8-8.8,1.3l-.2-1.7.6-1.3,1.4-3.3-2.3-.9c-.2,0-.4-.2-.6-.3v-.3s.3-1.5.3-1.5c3.4-.5,6.9-1,10.4-1.5-.4,1.1-1.1,2.2-1.9,3l-2.1,1.9,3.2,4.7"/>
    <path class="st4" d="M766.4,56.2h.5v.3c-.1-.1-.3-.2-.5-.3M835.6,65.5h-.2c-.1-.4-.2-.8-.3-1.2l.8-.2c0,.5-.1,1-.3,1.4M836,63.8l-.4-1.6c0-.2-.1-.4-.2-.6,0,0,0-.2.1-.3h.3c.1.7.2,1.3.2,2,0,.2,0,.3,0,.5M892.9,82.2l-.7-.2h0c.2,0,.5,0,.7.2M826.8,60.2c-.4.6-.8,1.2-.5,2,3.3,3.1,5.6,1.1,5-1.4h.1v.6c-.6,1.4-2.1,1.7-3.4.5-.4-.5-.6-1.1-.7-1.6h-.5M689.8,72.4l-1.2.2-1.7-9.2,1.1-.2.2,1,1.5,8.2M686.6,73l-1.8-9.2h-.2c0,0,1.8,9.2,1.8,9.2h.2M680,74.4h-.3c0,0-1.9.5-1.9.5h0c0-.1,1.8-1.2,1.8-1.2l.5.7M677.2,65.4h.6c0-.1,0-.1,0-.1l.9-.2.6,2.7-1.7,1.2-.5-3.5M679.7,69.6l.2,1-2.6-.4,2.4-.6M651.1,81.8l-.9.3c-2,.6-4,1.2-5.8,1.9-1.3.4-2.7.9-4,1.3l-.2-.3,2.8-2-3.1-3.9,4.5,2.7,1.7-1.2,1.7-1.2,2.2,1.7,1.1.9M633.1,87.9c-1.3.5-2.6.9-3.8,1.4l-.4-2-.4-2.1,3.5-1.5c1.9-.8,3.5-1.2,3.6-.9,0,.3-.8,2.3-2,4.4l-.4.6M629.1,89.3l-3.5-2.1c-2-1.2-4.4-2-5.3-1.8l-1.7.4,1.5,1,1.4,1-5.9,1.3.5-2.8.4-2.1c-1.8.7-3.6,1.5-5.4,2.2l3.7,8.6c1-.4,1.9-.8,2.9-1.2-.5-.1-1.2-.4-1.7-.8l-1.5-1.1,3.8-.8.3,1.3c0,.3,0,.7,0,1,3.4-1.4,6.9-2.8,10.4-4.1M602.8,100.5c-1.9.9-3.8,1.8-5.7,2.7-1.6.8-3.2,1.6-4.8,2.4l2.1-3.1-.5-2.6-.5-2.6,2.9,1.6,2.8,1.6,3.8-.2M584.4,109.8c-7.8,4.1-15.6,8-23.6,11.7-3.5,1.6-6.9,3.2-10.4,4.8-.1-.3-.5-.4-.9-.4-.5,0-.9.4-.8.7,0,.2.1.3.2.4-2.8,1.2-5.6,2.5-8.5,3.7l-5,.5-.3-1.2-1,.7-.6.4h0c0-.1.9-1.3.9-1.3l1.1-1.5-.8-.3-.8-.3-1,1.6-1.9-4.6.9-.4h0s0,1.4,0,1.4h1.1s1.1,0,1.1,0l-.6-2.2c7.9-3.3,15.7-6.7,23.5-10.4,7.2-3.3,14.2-6.8,21.2-10.5l2.2,2.3h4s4,0,4,0l-3,1.3-3,1.3.3,1.2c0,.4.8.8,1.8,1.1M524.7,136.9h0s0,0,0,0l-3,1.2-.3-.8,3.5-.4M519.4,132.5l-1.2-3.2,3-1.1h0l2.1-.8c-.2,0-.3.2-.4.3l-.5.6,3.1,2.4v1.2c.1,0-6.1.6-6.1.6M511.4,141.9l-.7.2h-1.1c0,0,1-1.4,1-1.4l.3-.4.5,1.5M507.2,143.4l-.7-.5,1-1.4,1-1.4,2.1-.5-.3-.9c-4.7.6-9.2,1.2-13,1.7l-2.7.3-.4,4.7-1.1-.4-1.2-.5-3.4.7,1.2,3.9.8-.2c.1-.1.3-.2.5-.3l1.1-.6v.3c5.1-1.6,10-3.2,15-5M494.8,137.8h0c2.3-.8,4.6-1.6,6.9-2.4v.6c.1,0-.4.1-.4.1-2,.6-4.4,1.1-6.6,1.6M487.8,143l-.4-1.4,3-.4-1.1,1.6h-1.5M503.4,134.8c1.3-.5,2.6-.9,3.9-1.4l-.3.8v.4c-.1,0-3.8,1-3.8,1l.2-.8M482.1,151.5l-1.6.5c-.3-.9-.7-1.7-1.2-2.5l2.2-.2.6,2.2M477.1,147.1c-.5-.3-1-.6-1.4-.6-.6-.4-1.2-.7-1.9-.8l4-2.6,1-.3h.8c0-.1.2.6.2.6l-1.1,1.7c-.5.8-1,1.5-1.6,2.1M469.8,150.5c.9,1.4,1.8,2.6,2.6,3.8l-3.4.9-2-4.2-1.3-.3,1.9-1.1,2.2.9M459,157.8l-1.3.3c-7.6,1.9-15.2,3.6-22.8,5.1-.5-1.6-1.1-3.3-2-4.7,4.1-.3,8.8-.6,12.1-.9l8.3-.7,5.2-2.4c.2,1.1.4,2.4.5,3.3h0M422.7,165.4h-.7c0,.1-.1.1-.1.1.6-.9.7-1.9-.1-2.9-.8-1.8-2.4-2.4-4.1-2.1v-.7c-.1,0,2.3-.4,2.3-.4l4.5-.3v.2c-.7,1.4-1.4,3-2.7,4,.4.7.8,1.4,1,2.2M412.1,167.2c-1.7.3-3.5.5-5.3.8-.6-.1-1.3,0-1.8.1h0c-3,.5-6.1.9-9.2,1.3l-.6-5.4c2.4-.4,4.9-.9,7.4-1.4l3.2-.6h.1c0,.1,0,0,0,0l5.2-1,1,6.2M373.5,171.8c-2.6.2-5.1.4-7.7.6-2.6.2-5.2.3-7.7.5l-.6-9.3h.8c-.8,1.5-.9,3.1,0,5.3,2,2.3,6.9.4,5.2-3.7-.2-.6-.7-1.3-1.3-1.9l3-.2c1.8-.1,3.6-.3,5.4-.4l1.7,4.7h.8c0-.1.4,4.4.4,4.4M349.8,173.3c-1.9.1-3.9.2-5.7.2h-1c.8-2.9,1-7,5.6-6.3.5-1,.8-2.1.9-3.3,1.6,0,3.2-.1,4.8-.2l.3,5.9c-1.6-1.1-3.3-.7-5.4-1.1.5,1.2-.4,2.9.6,4.8M335.3,173.8h-1.9s0-1.3,0-1.3l2,1.3M328.2,173.9c-2,0-3.9,0-5.5,0v-9.4s4.1,0,4.1,0c.4,1.6.9,3.1,1.4,4.7v4.7M320.1,173.9h-3.7v-7.7c.8,1.5,2.1,2.6,3.4,2.1.1,0,.3-.1.4-.2v5.9"/>
    <path class="st4" d="M317.4,164.6c0,.9.5,1.8.6,3.4.7.2,1.5,0,2.1-.6v-.9l-1.5,1.3c-.4-1-.1-2.3-.5-3.2h-.7M319.1,164.6h1v.7c-.3-.2-.6-.6-1-.7M315.2,173.9h-3.1s.1-9.2.1-9.2h0c0-.1,0-.1,0-.1h0c0,.1.2,0,.2,0h2.8s-.1,9.4-.1,9.4M309.5,173.8h-3.7c0,0,.2-9.5.2-9.5h3.5c0,.2.2.2.2.3l-.2,9.2M304.3,173.7l.2-9.3h-.2c0,1.1-.4,2.1-1.1,3.3-.9.4-3.4-.2-4.5-2.9,0-.2-.1-.4-.2-.5h1.8s1,0,1,0c-1,1.6-2.3,2.2-3.8-.1h-.7c-.3.2-.6.4-.9.5l-.3,8.8,4.3.2h0c1.3,0,2.6,0,4.3.1M290.7,173.2h-2.3c0,0,.4-9.5.4-9.5h.3c.3.5.8.8,1.4.6,0-.1.1-.3.1-.5h.6s-.4,9.4-.4,9.4M281.5,172.7l.4-7.1c-.4-.3-.8-.6-1.1-1l-3-.8.4,2.9-8,.6-.3,4.7c2.3.2,5,.3,8.3.6h1.6c0,0,1.6.2,1.6.2h0M261.1,171.3v-.6c-.2.2-.5.4-.8.6h.8M217.1,164.1l-.2-1c1.7-.6,3.6-.9,5.4.5l-5.2.5M216.6,158.3c.2,0,.3.1.4.2l2.3-.2c.1-.2.2-.4.3-.6v-.4s-2.9-.4-2.9-.4l-.3.5h0v.9M230.1,158.7h1.1c.8.6,1.6,1.6.9,2.6,0,2.2-3.6-.7-2-2.6M948.4,44h0s0,0,0,0h0M946.3,41.4l1-3c.7.9,1.4,1.9,2.1,2.7l-.4,1.2-2.7-.8M948.5,35.1l.3-.9,2.7.9-.7,2.1c-.8-.6-1.5-1.4-2.3-2.1M939.9,41l2.7-8.1c.1.4.3.9.5,1.4.7.3,1.4.9,2.2,1.7l.4-1.3c-.2-.8-.8-1.5-1.7-1.9l-.9-.3c-.9.4-.4,1.8-.8,3.5,1-.4,1.5.9,2.5.5.1,0,.3,0,.4-.2l-1.5,4.4-1-.3-2.8.7M935.4,39.5l2.9-8.8h.2c0,0-2.8,8.7-2.8,8.7h-.2M934.8,39.5h0l1-3.2,2-5.7h-.2s-1-.4-1-.4c-1.5,0-3.5.2-4.7.5l-2.6.6-.9-3.6h-.3c0-.1-5.2,1-5.2,1l-.8-3-3.5-1c-.6.4-1.2.9-1.6,1.4l-1.7,1.9-.2-.2-1.5,5.2c3,.8,5.9,1.7,8.8,2.6-.4-1-.5-2-.4-2.7l.4-1.7c2.4,1.5,3.6,3.6,3.3,5.4l3,.9,3,1,2.8.9h0M912.8,32.7l-2.8-.8,2-6.8.8.7,1.7,1.4-1.6,5.6M912.3,23.4v-.5c.1,0,1.3.3,1.3.3h-1.3M909.8,31.9l1.9-6.9-1.8-1.4,2.3-.2v-.5c.1,0-2.8-.8-2.8-.8h0l-2.9-.8v.4c1.4,1.1,1.7,3.2.7,4.8-.4.2-1-.2-1.6-.5l.4-.4.4-.5c1,.2,2,.1,2.6-.6-2,1.6-1.4,4.5-.8,7l1.7.5M906.5,30.9l-2.5-.7.5-1.9c.9.3,1.7.9,2.2,1.7,0,.3-.2.6-.3.9M903.8,30.2l.5-1.9h-.4c0-.1-.5,1.8-.5,1.8h.3M905.8,21.3v-.2s.4,0,.4,0v.3c-.2,0-.3-.1-.4-.2M902.4,29.8l-1.3-.3.5-1.9c.4.1.9.2,1.3.3l-.5,1.9M902.7,23.7l.9-3.3h.4c0,.1-.7,2.4-.7,2.4l-.3,1h-.2M904.3,20.6h.5c0,.1,0,.5,0,.5h-.1c0,0-.3-.5-.3-.5M899.4,29l-.8-.2.8-3c.2.3.4.6.6.8l-.6,2.3M900,23.2l.9-3.4.8.2-.8,3.2c-.3,0-.5,0-.8,0M895.7,26.3l1.9-7.5h0l-1.9,7.5h0M611.6,38.6l-2.3,1-3.7-8.6,2.3-1,3.6,8.6M606.7,40.7l-3.8-8.6h-.3c0,.1,3.8,8.7,3.8,8.7h.3M604.7,41.6l-1.3.6-3.8-8.6,1.3-.6,3.8,8.6M598.3,44.5l-1.1.5-4-8.4,1.1-.5,4,8.4M596.5,45.4l-4-8.4-2,1,4,8.4,2-1M592,47.6l-.6.3-4.2-8.4.5-.3,4.2,8.4M589.8,48.7l-4.2-8.3-2.5,1.3,4.2,8.3,2.5-1.3M585.7,50.8l-.5.3c-.5.3-1,.5-1.9,1h0s0,0,0,0l-4.3-8.3h0s2-1.1,2-1.1l.5-.3,4.3,8.3M582.4,52.5l-4.3-8.3-1,.5,4.3,8.3,1.1-.5M581.1,53.2l-4.3-8.3-3.7,1.9-3.7,1.9,4.3,8.3,3.2-1.6-.9-.5-1.3-.8,5-.4-.9.8,2.4-1.3M570.5,58.6l-.6.3-4.2-8.4.6-.3,4.2,8.3M568.5,59.7l-4.1-8.4c-1.6.8-3.4,1.7-5.5,2.7-1.9.9-3.7,1.8-5.4,2.6l3.6,7.7c1.8-.9,3.2-1.5,3.4-1.6.3,0,.3.3.2.8l2.2-1.1c1.6-.8,3.5-1.7,5.5-2.7M545.1,70.3l7.2-3.7,1.6-.8-.8-1.8c-.2.4-.5.9-.8,1.3-.8,1.2-1.6,1.7-1.7,1.2,0-.5-.8-1.7-1.5-2.8l-1.4-2,4.2-.4-1.6-3.4c-1.1.5-2.7,1.2-4.4,2l-4.4,2,2,4.6,2-.5,3.5-.9-.9,1-.9,1-3.5-.2,1.4,3.2M542.2,71.1l1.7-.4-1.6-3.7h-.2s.1,0,.1,0l-2-4.4-1.5.7,3.5,7.8M530,74.2l-.8-1.8,3.5-.8-.5-2-1.9.4c0,0,0-.2,0-.2,0-.5.3-1.9.8-3.1v-.2c0,0,.7-.2.7-.2.6-.3,2.1-.9,4.3-1.9l3.2,7.4h-.3c0,0-.4-.3-.4-.3l-.4.6-8.2,2M490.6,81.7c1.8-.6,3.6-1.2,5.3-1.8.4,1.1.8,2,1,2.6l-2.6.7-1.5,1.3-2-.3-.3-2.4M498.2,79.1c2.8-1,5.6-2,8.4-3,5.5-2,10.9-4.1,16.3-6.2.2.9.5,1.7.6,2.2l.6,2.1,1.7-.9.7,1.8-28.8,7.2c.2-.5.3-1.3.4-2.3v-.8M487.6,84.3l-.5-1.5,1.2-.4.4,1.2c-.2.4-.6.6-1.1.7h0M472.5,88.9v-.6c-.1,0,1.8-.2,1.8-.2v-1.4s1.9-.5,1.9-.5h0s4-1.2,4-1.2l.8,2.5-1.2.2-7.2,1.1M443.6,104.4h0v-.4c0,0,0,0,0,0v.4M443.2,102.7l-.8-3.6h0l.8,3.6h0M441.9,104.8l-.7.2.2-2.4.5,2.3M438.6,95.9l1.3-.3.6,2.9-.3.2h.4c0,0,.3,1.3.3,1.3-.8-1.3-1.5-2.8-2.2-4.1M434.5,106.4h0s-3.4.7-3.4.7h-.2s-1.4-7-1.4-7c.5,0,.9-.4,1.2-.9,0-.6,0-1.1-.1-1.5l2.1-.4h.1s.3,1.4.3,1.4c.1,2.3.6,4.7.4,7.3l1.1.3v.2M430.6,107.2l-1.3-7.1c-1,.1-2.1-.6-3-1.6h-.1s.7,3.8.7,3.8c1-.4,1.8-.7,2-.8.2,0,0,.8-.4,1.9-.2.6-.6,1.1-1.1,1.5l.5,2.8,1-.2,1.8-.3M423.9,108.5h-.2s0-.1,0-.1l-1.7-9h.3c0,0,1.7,9.2,1.7,9.2M419,104l-.7-4h.8c0-.1.7,4.2.7,4.2-.2,0-.5-.2-.8-.2M417.2,104.2c.4-.2.9-.3,1.5-.3l-.7-3.9-1.5.2.7,4M415.8,106.2l-1-5.7,1.5-.3.7,4c-.6.4-1,1.1-1.2,1.9M415.7,109.9h.1c0-.1-.3-.5-.3-.5,0-.8,0-1.7.1-2.5l-1-6.3-1.2.2,1,6.2.7,1-.5-.2.4,2.2h.7M412.1,110.5h-.2s-1.3-7.8-1.3-7.8h.1c0,0,.4,2.2.4,2.2,0,.2,0,.4,0,.7,0,.2.1.4.3.6l.7,4.4M411.6,110.6l-1.2-7.8c-.3,0-.6,0-.9,0-.4-.2-.7-.7-.9-1.1h-1c0,.1,1.5,9.4,1.5,9.4l2.5-.4M408.9,111l-1.8.3-1.4-9.3,1.8-.3,1.4,9.3M406.4,111.4l-.2-1.1-.5,1.2h.7M404.9,108.9l.4.2.9.5-.4-2.8c0,.3-.3.7-.9.7h-.2c0,.1.2,1.4.2,1.4M405.1,106.2c.3,0,.5.2.6.5l-.7-4.5-1.1.2.2,1c.4.3.7.8,1,1.5,0,.5.1.9,0,1.3M404.5,111.7l-.5-3.4c-.9.6-2.1.4-2.9-.3l-.7-5.1,1.9-.3c.3,0,.6.1.9.2v-.4s-.5,0-.5,0c.2.2.4.4.5.7l.7,4.5c-.1.9-.3,1.8-.4,2.3-.6.7-1.3.9-2,.8l.2,1.3,2.8-.4M400.4,112.3l-.3-1.9c-1-.5-1.8-1.4-2.6-2.1l.6,4.3,2.2-.3M397.1,104.9l-.2-1.5,1.2-.2c-.5.5-.8,1.1-1,1.7M399.3,104.4l.2,1.4c-.3-.5-.3-1-.2-1.4M397,112.8l-.5-4.2-1.2-.7-1.3-.7,2.3-.2-.5-3.4-2.9.4.9,6.6c1.1.6,2.1,1.4,3.1,2.3h.1M391.5,113.5h-.8c0,.1-1.1-8.7-1.1-8.7l.6-.5h.3c0,0,1,8,1,8-.1.4-.2.8,0,1.2M390.7,113.6l-1.1-8.8-.3.2,1.1,8.6h.3M389.8,113.7l-1-8.3-.4.3,1,8h.4M389.3,113.8l-.9-8-1.4,1.2-1.2-.7h-.2c0-.1.9,7.8.9,7.8l2.8-.3M385.9,114.2l-1.3.2c-.8-1.7-2-3.3-3.3-4.5-1.9-.5-3.2.7-3.6,2.8v-1c1.6-2.6,4.2-4.1,6-6.6h.4c.8,2.9-2.6,4.9-4,1.4-.2-.3-.5-.6-.6-.9l-2.4.2v.7c3,2.4,6.6,1.4,7.3-1.5h.5s0,.1,0,.1l-.3.5.4.2.9,8.3M377.1,115.1l-.2-2.2c-.1.3-.3.6-.4.9v1.2c.1,0,.6,0,.6,0M376.2,110.8l-.2-2.2.5,2.4-.3-.2M373.4,106.1h1.4c0-.1.3,3.5.3,3.5-.5-.8-1-1.9-1.7-3.5M370.5,115.7h-1.4c0,.1-.2-2.5-.2-2.5.5.6,1,1.2,1.5,1.7v.9M368.4,106.6h0c0-.1,0-.1,0-.1v.2h0M369.4,106.4h.4s0,.5,0,.5h0l-.4-.5M366.3,116.1h-1.6c0,.1-.2-2.6-.2-2.6h.5c0,0,.4-.9.4-.9.2,0,.4.2.6.2l.3,3.3M364.2,109.9v-.5c.2.1.5.2.9,0l-1-2.6h0v.3c.6.6,1.2,1.3,1.8,2h0c-.6.2-1.1.4-1.4.7h-.2M359.3,116.6h-.9c0,0-.1-1.5-.1-1.5l.7-.9.2-.2.2,2.7M358,111.8v-2.2c.1,0,.5.1.8.1v1.6c-.2.1-.5.3-.8.4M357.7,107.4h0c0-.1,0-.1,0-.1h0M356.4,116.8h-.2v-1.6c0,0,0,0,0,0v1.6M356,113.1l-.3-5.6h.2c0,0,.3,5.5.3,5.5h-.1M355.3,116.8h-1c0,0-.1-2.3-.1-2.3l1,.3v2M354.2,114.3l-.4-6.8h1c0,0,.4,6.2.4,6.2l-.9.6M353.4,116.9l-.5-8.4c0,.3-.2.7-.4,1-.7-.4-1.3-1.1-1.7-1.8h-1.3c-1.2,1.9,2.9,4.5,3.2,3.3l-.5-3.2c-.2,0-.4,0-.7,0h-.4.4c-.7.4.4,1.1,1.1.8l-3.8.6.4,6.5h0c0,0,0,.1,0,.1v1.4c0,0,4.4-.2,4.4-.2M343.3,117.4h0s0-.3,0-.3h0s-.1-1.2-.1-1.2l-.4-7.8h0l.5,9.3M340.3,117.6h-.7s-.2-1.7-.2-1.7l.8.3v1.4M339,113.9l-.2-5.7h1.1s.2,5.4.2,5.4l-.6-.2-.5.5M330.4,117.8h0s0,0,0,0M330.2,112h0c.3-.1.5,0,.8,0h0c-.3,0-.5,0-.8,0M329.7,117.8h-1.8s0-.6,0-.6c.1-.4.4-.8.9-1,.3.3.6.7.9.9v.6M327.7,112.5v-2c.5.7,1.2,1.2,1.8,1.4h0c-.6,0-1.3.3-1.8.6M306.5,117.8h-.9c.2-.4.5-.6.9-.6v.6"/>
    <path class="st4" d="M305.5,117.8h-2c0-1.2-.3-2.1-2-2.5-.2.9-.4,1.6-.6,2.4h1.8c-1.5-1.7-2.9-3.7-3.3-5.7,2.3.9,5.1-2.9,7.1,1.4v-4.9c-2.5,0-5,0-7.5-.2-.3,1.5-2.1,2.9-.7,5.4-1.1.4-2.9-.7-3.9-3.1,0-.7.1-1.6.5-2.4h.1c-.4,1.1-1.2,1.7-3,.8,0-.3,0-.6,0-.9h-1c-.2.6-.8.8-1.5,0h0c-3.8-.2-7.5-.4-11.3-.6-6-.3-12-.7-18-1.2.7.5,1.4,1.5,2.2,2,2.6,3.7-2.2,5.7-3.8,1.6-.5-1.4-.1-3.1-.1-3.1.2-.3.4-.5.5-.6-3-.3-6.1-.5-9.1-.8l-.9,9.3c8.5.8,17,1.5,25.6,2,0-.9.6-1.4,1-2.9,1.4-.5,3.6,1,4.5,3.3h-2.2c0-.1-2.3-.3-2.3-.3.1-.5.3-1,.9-1.3,3.9.2,6.3-3.4,10.5,1.9h-1.9c0-.6-.1-1.4-.1-2.4-.4-2.6,1.9-1.7,3-2.2.9.6,1.5,2.2,1.8,2.9-.7,0-1.6.9-2.4,1.7h-.2c.2-1.1.7-2.9,2.1-2.5.2,1.2.2,2,0,2.6h2.9c0,.1-1.8-4.3-1.8-4.3,1.1-.4,4.6,0,5.3,3.4.2.4.3.8.4,1.1h-1.9c-.4-.9-.5-1.8,0-2.8.8-1.2,2.2-2.8,3.9-1.6,1.5.3,1,2.4,1.3,3.2-.7.3-1.6.7-2.3,1.3h4.3c0,.1.5-4.5.5-4.5,2.5-.2,4.1.8,5.1,2.6v1.2c-.2.4-.6.8-1,1M243.8,114.1l.8-7.9h-1.2c0,0-1,1.5-1,1.5l-.9,1.6-2.1-1.5-2.1-1.5-.8,7.2,3.7.4h0s3.7.3,3.7.3M241.7,104.4h.9c0,.1-.1.3-.1.3l-.8-.3M235.4,113.2c-4.9-.6-9.7-1.1-14.6-1.7l.3-.3,1.1-1.2-3.1.3-.9.9c-4.4-.6-8.8-1.1-13.1-1.8l.7-3.2-1.2-.8-1.2-.8.3-1.1s0,0,.1,0c.5,0,.9-.4.8-.7,0-.2-.3-.4-.6-.5l.2-.8h1.2c.6-.2,2.6.6,4.3,1.5l3.1,1.7.5,4.1,6.2-.6-.4-3.1,2.2,1.1,2.2,1.1.3,2.2.7-.6.7-.6-.3-3.1-.3-2.4c3.9.5,7.8.9,11.6,1.3l-1,9.3M201.3,108.8l2.7-3.2-1.8-.5-1.8-.5-.5-4.1,1.9-1.1c-1.9-.3-3.9-.6-5.8-.9l-.3.7-.8,2.1-3.9,1.1-1.2.3.7,1.5.9,1.9,4.4,1.2-1.6-1.5,2.2-.2v2.3s4.8.7,4.8.7M190.6,107.2l-1-.2c.2-.2.2-.5.3-.7l.7.8M187.3,106.7c-2.2-.4-4.5-.7-6.7-1.1l.7-3.1.7-3.2h0l.2,1.8,2.3.7.5.2h-.2c0,0,1.1.8,1.1.8l1.1.7h.4c0-.1,1.7,1.9,1.7,1.9-.5.2-1.2.7-1.9,1.2"/>
    <g class="st2">
      <path class="st4" d="M162.9,93.1l-2.1-.4c-25.4-4.6-50.8-9.9-76.3-15.5-6.3-1.4-12.7-2.6-19-3.6l-2.9,3.2-3.8-3.1c-.8-.6-2.3-.8-3.3-.6l-1.8.4,1.5,1,3.8,3.1-6.2-1.2-.7-2.8,3.5-1.5h0c-12.1-1.5-24.2-2.3-36.4-2.3l1.4,1.5h-5.7c-.8-.1-1.6-.2-2.4-.2l2.4-1.2h-2.1s-.3,1.2-.3,1.2c-1.9-.2-3.3-.5-3.4-.9,0,0,0-.2,0-.2-2.8,0-5.7.3-8.5.4l.9,9.3c25.8-1.5,52.8.3,81.2,6.5,25.7,5.7,51.3,11,76.7,15.6l5,.9-1.2-9.7"/>
    </g>
    <path class="st4" d="M215.9,101.4h0s-.8,2.2-.8,2.2l-.8,2.2.6.6c.4.3,1,.6,1.4.5s1.4-1.2,2.1-2.7l1.2-2.3-3.8-.5"/>
  </g>
</svg>